<?xml version="1.0" encoding="UTF-8" standalone="no"?>
<svg width="980px" height="1184px" viewBox="0 0 980 1184" version="1.1" xmlns="http://www.w3.org/2000/svg" xmlns:xlink="http://www.w3.org/1999/xlink">
    <!-- Generator: Sketch 3.8.3 (29802) - http://www.bohemiancoding.com/sketch -->
    <title>cytoscape-flat-logo-white</title>
    <desc>Created with Sketch.</desc>
    <defs></defs>
    <g id="Page-1" stroke="none" stroke-width="1" fill="none" fill-rule="evenodd">
        <path d="M410.692,185.405 L628.958,130.356 C638.753,56.973 701.656,0.678 777.296,0.678 C859.93,0.678 926.957,67.708 926.957,150.342 C926.957,230.926 863.218,296.662 783.431,299.88 L724.289,494.742 C770.921,525.041 799.662,577.053 799.662,633.607 C799.662,681.074 779.444,725.673 744.604,756.889 L809.358,886.144 C816.297,885.155 823.31,884.674 830.338,884.674 C912.976,884.674 980,951.701 980,1034.339 C980,1116.973 912.976,1184 830.338,1184 C747.699,1184 680.671,1116.973 680.671,1034.339 C680.671,996.065 695.2,959.714 721.013,932.129 L653.818,798.005 C647.275,798.788 640.686,799.183 634.088,799.183 C600.565,799.183 568.211,789.13 540.825,770.406 L464.741,837.415 C465.255,841.349 465.508,845.322 465.508,849.306 C465.508,899.721 424.618,940.622 374.197,940.622 C323.774,940.622 282.878,899.721 282.878,849.306 C282.878,798.881 323.774,757.982 374.197,757.982 C382.898,757.982 391.51,759.214 399.809,761.635 L479.065,691.838 C475.03,681.109 472.136,669.987 470.413,658.648 L281.476,633.197 C255.624,681.241 205.221,711.943 149.66,711.943 C67.023,711.943 0,644.913 0,562.281 C0,479.644 67.023,412.622 149.66,412.622 C222.368,412.622 283.756,464.769 296.775,534.683 L485.679,560.136 C486.937,557.6 488.261,555.096 489.648,552.624 L345.304,405.235 C326.575,413.364 306.371,417.553 285.796,417.553 C203.16,417.553 136.133,350.528 136.133,267.891 C136.133,185.254 203.16,118.229 285.796,118.229 C336.519,118.229 383.213,143.809 410.692,185.405 L410.692,185.405 Z M434.689,283.121 C432.76,302.115 427.233,320.497 418.363,337.383 L562.317,484.371 C582.91,474.446 605.319,468.931 628.278,468.135 L688.223,270.607 C672.917,259.255 659.882,245.064 649.869,228.852 L434.689,283.121 Z" id="cytoscape-flat-logo-white" fill="#FFFFFF"></path>
    </g>
</svg>