<?xml version="1.0" encoding="UTF-8" standalone="no"?>
<!DOCTYPE svg PUBLIC "-//W3C//DTD SVG 1.1//EN" "http://www.w3.org/Graphics/SVG/1.1/DTD/svg11.dtd">
<svg width="100%" height="100%" viewBox="0 0 138 134" version="1.1" xmlns="http://www.w3.org/2000/svg" xmlns:xlink="http://www.w3.org/1999/xlink" xml:space="preserve" style="fill-rule:evenodd;clip-rule:evenodd;stroke-linejoin:round;stroke-miterlimit:1.41421;">
    <g transform="matrix(4.16667,0,0,4.16667,-0,-0)">
        <path id="Page-1" d="M16.288,0C7.294,0 0,7.293 0,16.291C0,23.487 4.667,29.593 11.14,31.747C11.955,31.896 12.252,31.393 12.252,30.962C12.252,30.575 12.238,29.551 12.23,28.191C7.699,29.176 6.743,26.008 6.743,26.008C6.002,24.126 4.934,23.625 4.934,23.625C3.455,22.614 5.046,22.635 5.046,22.635C6.681,22.75 7.541,24.313 7.541,24.313C8.994,26.803 11.354,26.084 12.282,25.667C12.43,24.614 12.851,23.896 13.316,23.489C9.699,23.078 5.896,21.68 5.896,15.438C5.896,13.66 6.531,12.206 7.573,11.067C7.405,10.655 6.846,8.999 7.733,6.756C7.733,6.756 9.1,6.318 12.212,8.426C13.511,8.065 14.905,7.884 16.29,7.878C17.674,7.884 19.067,8.065 20.368,8.426C23.478,6.318 24.843,6.756 24.843,6.756C25.732,8.999 25.173,10.655 25.006,11.067C26.05,12.206 26.68,13.66 26.68,15.438C26.68,21.696 22.871,23.073 19.243,23.476C19.827,23.979 20.348,24.973 20.348,26.493C20.348,28.671 20.328,30.428 20.328,30.962C20.328,31.397 20.622,31.904 21.448,31.745C27.916,29.587 32.579,23.485 32.579,16.291C32.579,7.293 25.285,0 16.288,0Z" style="fill:white;"/>
    </g>
</svg>
