<?xml version="1.0" encoding="UTF-8" standalone="no"?>
<svg width="33px" height="32px" viewBox="0 0 33 32" version="1.1" xmlns="http://www.w3.org/2000/svg" xmlns:xlink="http://www.w3.org/1999/xlink">
    <!-- Generator: Sketch 39 (31667) - http://www.bohemiancoding.com/sketch -->
    <title>Page 1</title>
    <desc>Created with Sketch.</desc>
    <defs></defs>
    <g id="Page-1" stroke="none" stroke-width="1" fill="none" fill-rule="evenodd">
        <path d="M16.288,3.10685368e-05 C7.294,3.10685368e-05 0,7.29303107 0,16.2910311 C0,23.4870311 4.667,29.5930311 11.14,31.7470311 C11.955,31.8960311 12.252,31.3930311 12.252,30.9620311 C12.252,30.5750311 12.238,29.5510311 12.23,28.1910311 C7.699,29.1760311 6.743,26.0080311 6.743,26.0080311 C6.002,24.1260311 4.934,23.6250311 4.934,23.6250311 C3.455,22.6140311 5.046,22.6350311 5.046,22.6350311 C6.681,22.7500311 7.541,24.3130311 7.541,24.3130311 C8.994,26.8030311 11.354,26.0840311 12.282,25.6670311 C12.43,24.6140311 12.851,23.8960311 13.316,23.4890311 C9.699,23.0780311 5.896,21.6800311 5.896,15.4380311 C5.896,13.6600311 6.531,12.2060311 7.573,11.0670311 C7.405,10.6550311 6.846,8.99903107 7.733,6.75603107 C7.733,6.75603107 9.1,6.31803107 12.212,8.42603107 C13.511,8.06503107 14.905,7.88403107 16.29,7.87803107 C17.674,7.88403107 19.067,8.06503107 20.368,8.42603107 C23.478,6.31803107 24.843,6.75603107 24.843,6.75603107 C25.732,8.99903107 25.173,10.6550311 25.006,11.0670311 C26.05,12.2060311 26.68,13.6600311 26.68,15.4380311 C26.68,21.6960311 22.871,23.0730311 19.243,23.4760311 C19.827,23.9790311 20.348,24.9730311 20.348,26.4930311 C20.348,28.6710311 20.328,30.4280311 20.328,30.9620311 C20.328,31.3970311 20.622,31.9040311 21.448,31.7450311 C27.916,29.5870311 32.579,23.4850311 32.579,16.2910311 C32.579,7.29303107 25.285,3.10685368e-05 16.288,3.10685368e-05 L16.288,3.10685368e-05 Z" fill="#4A4A4A"></path>
    </g>
</svg>