<?xml version="1.0" encoding="UTF-8"?>
<svg width="2327px" height="1068px" viewBox="0 0 2327 1068" version="1.1" xmlns="http://www.w3.org/2000/svg" xmlns:xlink="http://www.w3.org/1999/xlink">
    <!-- Generator: Sketch 42 (36781) - http://www.bohemiancoding.com/sketch -->
    <title>Page 1</title>
    <desc>Created with Sketch.</desc>
    <defs></defs>
    <g id="Page-1" stroke="none" stroke-width="1" fill="none" fill-rule="evenodd">
        <g transform="translate(0.000000, 1.000000)">
            <path d="M1344.27,634.213 C306.959,634.213 306.959,656.705 201.111,656.705" id="Stroke-1" stroke="#FFFFFF" stroke-width="1.0585"></path>
            <path d="M1915.85,712.276 L1725.32,712.276" id="Stroke-2" stroke="#FFFFFF" stroke-width="1.0585"></path>
            <path d="M1725.32,270.36 C1640.64,270.36 1640.64,155.25 1534.8,155.25" id="Stroke-3" stroke="#FFFFFF" stroke-width="1.0585"></path>
            <path d="M1725.32,122.173 C1640.64,122.173 1640.64,155.25 1534.8,155.25" id="Stroke-4" stroke="#FFFFFF" stroke-width="1.0585"></path>
            <path d="M1344.27,712.276 C1259.59,712.276 1259.59,507.195 1153.74,507.195" id="Stroke-5" stroke="#FFFFFF" stroke-width="1.0585"></path>
            <path d="M1344.27,565.411 C1259.59,565.411 1259.59,507.195 1153.74,507.195" id="Stroke-6" stroke="#FFFFFF" stroke-width="1.0585"></path>
            <path d="M1153.74,847.232 C497.486,847.232 497.486,927.941 391.638,927.941" id="Stroke-7" stroke="#FFFFFF" stroke-width="1.0585"></path>
            <path d="M582.164,971.6032 C497.486,971.6032 497.486,927.941 391.638,927.941" id="Stroke-8" stroke="#FFFFFF" stroke-width="1.0585"></path>
            <path d="M2296.9,632.89 L2106.38,632.89" id="Stroke-9" stroke="#FFFFFF" stroke-width="1.0585"></path>
            <path d="M582.164,276.976 L391.638,276.976" id="Stroke-10" stroke="#FFFFFF" stroke-width="1.0585"></path>
            <path d="M1725.32,634.213 L1534.8,634.213" id="Stroke-11" stroke="#FFFFFF" stroke-width="1.0585"></path>
            <path d="M1725.32,430.455 C1640.64,430.455 1640.64,324.607 1534.8,324.607" id="Stroke-12" stroke="#FFFFFF" stroke-width="1.0585"></path>
            <path d="M1344.27,565.411 C1259.59,565.411 1259.59,599.812 1153.74,599.812" id="Stroke-13" stroke="#FFFFFF" stroke-width="1.0585"></path>
            <path d="M1915.85,712.276 C1450.12,712.276 1450.12,565.411 1344.27,565.411" id="Stroke-14" stroke="#FFFFFF" stroke-width="1.0585"></path>
            <path d="M1153.74,220.082 C1069.06,220.082 1069.06,325.93 963.217,325.93" id="Stroke-15" stroke="#FFFFFF" stroke-width="1.0585"></path>
            <path d="M1344.27,712.276 C1259.59,712.276 1259.59,926.618 1153.74,926.618" id="Stroke-16" stroke="#FFFFFF" stroke-width="1.0585"></path>
            <path d="M1344.27,279.622 C1259.59,279.622 1259.59,101.003 1153.74,101.003" id="Stroke-17" stroke="#FFFFFF" stroke-width="1.0585"></path>
            <path d="M1344.27,210.821 C1259.59,210.821 1259.59,101.003 1153.74,101.003" id="Stroke-18" stroke="#FFFFFF" stroke-width="1.0585"></path>
            <path d="M1725.32,430.455 C1640.64,430.455 1640.64,393.408 1534.8,393.408" id="Stroke-19" stroke="#FFFFFF" stroke-width="1.0585"></path>
            <path d="M1725.32,270.36 C1640.64,270.36 1640.64,393.408 1534.8,393.408" id="Stroke-20" stroke="#FFFFFF" stroke-width="1.0585"></path>
            <path d="M1534.8,155.25 C1259.59,155.25 1259.59,220.082 1153.74,220.082" id="Stroke-21" stroke="#FFFFFF" stroke-width="1.0585"></path>
            <path d="M1344.27,385.47 C1259.59,385.47 1259.59,220.082 1153.74,220.082" id="Stroke-22" stroke="#FFFFFF" stroke-width="1.0585"></path>
            <path d="M1344.27,210.821 C1259.59,210.821 1259.59,220.082 1153.74,220.082" id="Stroke-23" stroke="#FFFFFF" stroke-width="1.0585"></path>
            <path d="M1725.32,122.173 C1450.12,122.173 1450.12,210.821 1344.27,210.821" id="Stroke-24" stroke="#FFFFFF" stroke-width="1.0585"></path>
            <path d="M1534.8,324.607 C1450.12,324.607 1450.12,210.821 1344.27,210.821" id="Stroke-25" stroke="#FFFFFF" stroke-width="1.0585"></path>
            <path d="M391.638,276.976 C306.959,276.976 306.959,382.824 201.111,382.824" id="Stroke-26" stroke="#FFFFFF" stroke-width="1.0585"></path>
            <path d="M582.164,390.762 C306.959,390.762 306.959,382.824 201.111,382.824" id="Stroke-27" stroke="#FFFFFF" stroke-width="1.0585"></path>
            <path d="M963.217,585.258 L201.111,585.258" id="Stroke-28" stroke="#FFFFFF" stroke-width="1.0585"></path>
            <path d="M1915.85,323.284 C1831.17,323.284 1831.17,430.455 1725.32,430.455" id="Stroke-29" stroke="#FFFFFF" stroke-width="1.0585"></path>
            <path d="M1534.8,634.213 L1344.27,634.213" id="Stroke-30" stroke="#FFFFFF" stroke-width="1.0585"></path>
            <path d="M201.111,382.824 C116.433,382.824 116.433,359.008 10.5848,359.008" id="Stroke-31" stroke="#FFFFFF" stroke-width="1.0585"></path>
            <path d="M201.111,585.258 C116.433,585.258 116.433,359.008 10.5848,359.008" id="Stroke-32" stroke="#FFFFFF" stroke-width="1.0585"></path>
            <path d="M201.111,656.705 C116.433,656.705 116.433,359.008 10.5848,359.008" id="Stroke-33" stroke="#FFFFFF" stroke-width="1.0585"></path>
            <path d="M201.111,927.941 C116.433,927.941 116.433,359.008 10.5848,359.008" id="Stroke-34" stroke="#FFFFFF" stroke-width="1.0585"></path>
            <path d="M1344.27,279.622 C1259.59,279.622 1259.59,288.884 1153.74,288.884" id="Stroke-35" stroke="#FFFFFF" stroke-width="1.0585"></path>
            <path d="M391.638,927.941 L201.111,927.941" id="Stroke-36" stroke="#FFFFFF" stroke-width="1.0585"></path>
            <path d="M1915.85,632.89 C1831.17,632.89 1831.17,634.213 1725.32,634.213" id="Stroke-37" stroke="#FFFFFF" stroke-width="1.0585"></path>
            <path d="M201.111,382.824 C116.433,382.824 116.433,826.062 10.5848,826.062" id="Stroke-38" stroke="#FFFFFF" stroke-width="1.0585"></path>
            <path d="M201.111,585.258 C116.433,585.258 116.433,826.062 10.5848,826.062" id="Stroke-39" stroke="#FFFFFF" stroke-width="1.0585"></path>
            <path d="M201.111,656.705 C116.433,656.705 116.433,826.062 10.5848,826.062" id="Stroke-40" stroke="#FFFFFF" stroke-width="1.0585"></path>
            <path d="M201.111,927.941 C116.433,927.941 116.433,826.062 10.5848,826.062" id="Stroke-41" stroke="#FFFFFF" stroke-width="1.0585"></path>
            <path d="M1725.32,871.048 C1640.64,871.048 1640.64,896.186 1534.8,896.186" id="Stroke-42" stroke="#FFFFFF" stroke-width="1.0585"></path>
            <path d="M1915.85,323.284 C1831.17,323.284 1831.17,361.654 1725.32,361.654" id="Stroke-43" stroke="#FFFFFF" stroke-width="1.0585"></path>
            <path d="M2106.38,210.821 C2021.7,210.821 2021.7,112.911 1915.85,112.911" id="Stroke-44" stroke="#FFFFFF" stroke-width="1.0585"></path>
            <path d="M772.69,231.99 C688.012,231.99 688.012,276.976 582.164,276.976" id="Stroke-45" stroke="#FFFFFF" stroke-width="1.0585"></path>
            <path d="M963.217,325.93 C688.012,325.93 688.012,276.976 582.164,276.976" id="Stroke-46" stroke="#FFFFFF" stroke-width="1.0585"></path>
            <path d="M2106.38,632.89 L1915.85,632.89" id="Stroke-47" stroke="#FFFFFF" stroke-width="1.0585"></path>
            <path d="M1534.8,896.186 L1344.27,896.186" id="Stroke-48" stroke="#FFFFFF" stroke-width="1.0585"></path>
            <path d="M2296.9,632.89 C2212.22,632.89 2212.22,210.821 2106.38,210.821" id="Stroke-49" stroke="#FFFFFF" stroke-width="1.0585"></path>
            <path d="M1344.27,279.622 C1259.59,279.622 1259.59,390.762 1153.74,390.762" id="Stroke-50" stroke="#FFFFFF" stroke-width="1.0585"></path>
            <path d="M1344.27,385.47 C1259.59,385.47 1259.59,390.762 1153.74,390.762" id="Stroke-51" stroke="#FFFFFF" stroke-width="1.0585"></path>
            <path d="M2106.38,210.821 C2021.7,210.821 2021.7,323.284 1915.85,323.284" id="Stroke-52" stroke="#FFFFFF" stroke-width="1.0585"></path>
            <path d="M1153.74,101.003 C1069.06,101.003 1069.06,185.682 963.217,185.682" id="Stroke-53" stroke="#FFFFFF" stroke-width="1.0585"></path>
            <path d="M1153.74,220.082 C1069.06,220.082 1069.06,185.682 963.217,185.682" id="Stroke-54" stroke="#FFFFFF" stroke-width="1.0585"></path>
            <path d="M1153.74,390.762 C1069.06,390.762 1069.06,185.682 963.217,185.682" id="Stroke-55" stroke="#FFFFFF" stroke-width="1.0585"></path>
            <path d="M1344.27,712.276 C1259.59,712.276 1259.59,847.232 1153.74,847.232" id="Stroke-56" stroke="#FFFFFF" stroke-width="1.0585"></path>
            <path d="M1534.8,827.385 C1259.59,827.385 1259.59,847.232 1153.74,847.232" id="Stroke-57" stroke="#FFFFFF" stroke-width="1.0585"></path>
            <path d="M1344.27,896.186 C1259.59,896.186 1259.59,847.232 1153.74,847.232" id="Stroke-58" stroke="#FFFFFF" stroke-width="1.0585"></path>
            <path d="M1915.85,323.284 C1831.17,323.284 1831.17,270.36 1725.32,270.36" id="Stroke-59" stroke="#FFFFFF" stroke-width="1.0585"></path>
            <path d="M1534.8,393.408 C1450.12,393.408 1450.12,385.47 1344.27,385.47" id="Stroke-60" stroke="#FFFFFF" stroke-width="1.0585"></path>
            <path d="M1534.8,324.607 C1450.12,324.607 1450.12,385.47 1344.27,385.47" id="Stroke-61" stroke="#FFFFFF" stroke-width="1.0585"></path>
            <path d="M1725.32,871.048 C1640.64,871.048 1640.64,827.385 1534.8,827.385" id="Stroke-62" stroke="#FFFFFF" stroke-width="1.0585"></path>
            <path d="M963.217,185.682 C878.538,185.682 878.538,231.99 772.69,231.99" id="Stroke-63" stroke="#FFFFFF" stroke-width="1.0585"></path>
            <path d="M1153.74,288.884 C878.538,288.884 878.538,231.99 772.69,231.99" id="Stroke-64" stroke="#FFFFFF" stroke-width="1.0585"></path>
            <path d="M1915.85,712.276 C1831.17,712.276 1831.17,871.048 1725.32,871.048" id="Stroke-65" stroke="#FFFFFF" stroke-width="1.0585"></path>
            <path d="M1153.74,507.195 C1069.06,507.195 1069.06,585.258 963.217,585.258" id="Stroke-66" stroke="#FFFFFF" stroke-width="1.0585"></path>
            <path d="M1153.74,599.812 C1069.06,599.812 1069.06,585.258 963.217,585.258" id="Stroke-67" stroke="#FFFFFF" stroke-width="1.0585"></path>
            <path d="M1725.32,361.654 C1450.12,361.654 1450.12,279.622 1344.27,279.622" id="Stroke-68" stroke="#FFFFFF" stroke-width="1.0585"></path>
            <path d="M1534.8,324.607 C1450.12,324.607 1450.12,279.622 1344.27,279.622" id="Stroke-69" stroke="#FFFFFF" stroke-width="1.0585"></path>
            <path d="M1153.74,926.618 C878.538,926.618 878.538,905.448 772.69,905.448" id="Stroke-70" stroke="#FFFFFF" stroke-width="1.0585"></path>
            <path d="M963.217,971.6032 C878.538,971.6032 878.538,905.448 772.69,905.448" id="Stroke-71" stroke="#FFFFFF" stroke-width="1.0585"></path>
            <path d="M772.69,231.99 C688.012,231.99 688.012,390.762 582.164,390.762" id="Stroke-72" stroke="#FFFFFF" stroke-width="1.0585"></path>
            <path d="M1153.74,390.762 L582.164,390.762" id="Stroke-73" stroke="#FFFFFF" stroke-width="1.0585"></path>
            <path d="M1915.85,112.911 C1831.17,112.911 1831.17,122.173 1725.32,122.173" id="Stroke-74" stroke="#FFFFFF" stroke-width="1.0585"></path>
            <path d="M1915.85,323.284 C1831.17,323.284 1831.17,122.173 1725.32,122.173" id="Stroke-75" stroke="#FFFFFF" stroke-width="1.0585"></path>
            <path d="M1725.32,712.276 C1640.64,712.276 1640.64,758.584 1534.8,758.584" id="Stroke-76" stroke="#FFFFFF" stroke-width="1.0585"></path>
            <path d="M2296.9,632.89 C2021.7,632.89 2021.7,712.276 1915.85,712.276" id="Stroke-77" stroke="#FFFFFF" stroke-width="1.0585"></path>
            <path d="M1153.74,926.618 C1069.06,926.618 1069.06,971.6032 963.217,971.6032" id="Stroke-78" stroke="#FFFFFF" stroke-width="1.0585"></path>
            <path d="M1344.27,712.276 C1069.06,712.276 1069.06,971.6032 963.217,971.6032" id="Stroke-79" stroke="#FFFFFF" stroke-width="1.0585"></path>
            <path d="M772.69,905.448 C688.012,905.448 688.012,971.6032 582.164,971.6032" id="Stroke-80" stroke="#FFFFFF" stroke-width="1.0585"></path>
            <path d="M963.217,971.6032 L582.164,971.6032" id="Stroke-81" stroke="#FFFFFF" stroke-width="1.0585"></path>
            <path d="M1725.32,712.276 L1344.27,712.276" id="Stroke-82" stroke="#FFFFFF" stroke-width="1.0585"></path>
            <path d="M1534.8,758.584 C1450.12,758.584 1450.12,712.276 1344.27,712.276" id="Stroke-83" stroke="#FFFFFF" stroke-width="1.0585"></path>
            <path d="M201.111,626.363 C201.111,624.708 199.767,623.363 198.111,623.363 L190.351,623.363 C188.695,623.363 187.351,624.708 187.351,626.363 L187.351,687.048 C187.351,688.703 188.695,690.047 190.351,690.047 L198.111,690.047 C199.767,690.047 201.111,688.703 201.111,687.048 L201.111,626.363 Z" id="Fill-84"></path>
            <path d="M201.111,626.363 C201.111,624.708 199.767,623.363 198.111,623.363 L190.351,623.363 C188.695,623.363 187.351,624.708 187.351,626.363 L187.351,687.048 C187.351,688.703 188.695,690.047 190.351,690.047 L198.111,690.047 C199.767,690.047 201.111,688.703 201.111,687.048 L201.111,626.363 Z" id="Stroke-85" stroke="#FFFFFF" stroke-width="1.0585"></path>
            <path d="M194.231,626.009 C196.568,626.009 198.465,627.907 198.465,630.243 C198.465,632.58 196.568,634.477 194.231,634.477 C191.894,634.477 189.997,632.58 189.997,630.243 C189.997,627.907 191.894,626.009 194.231,626.009 Z" id="Fill-86" fill="#D3E393"></path>
            <path d="M194.231,636.594 C196.568,636.594 198.465,638.491 198.465,640.828 C198.465,643.165 196.568,645.062 194.231,645.062 C191.894,645.062 189.997,643.165 189.997,640.828 C189.997,638.491 191.894,636.594 194.231,636.594 Z" id="Fill-87" fill="#FEFFFF"></path>
            <path d="M194.231,647.179 C196.568,647.179 198.465,649.076 198.465,651.413 C198.465,653.75 196.568,655.647 194.231,655.647 C191.894,655.647 189.997,653.75 189.997,651.413 C189.997,649.076 191.894,647.179 194.231,647.179 Z" id="Fill-88" fill="#D3E599"></path>
            <path d="M194.231,657.764 C196.568,657.764 198.465,659.661 198.465,661.998 C198.465,664.335 196.568,666.232 194.231,666.232 C191.894,666.232 189.997,664.335 189.997,661.998 C189.997,659.661 191.894,657.764 194.231,657.764 Z" id="Fill-89" fill="#E1F8E0"></path>
            <path d="M194.231,668.349 C196.568,668.349 198.465,670.246 198.465,672.583 C198.465,674.919 196.568,676.816 194.231,676.816 C191.894,676.816 189.997,674.919 189.997,672.583 C189.997,670.246 191.894,668.349 194.231,668.349 Z" id="Fill-90" fill="#E8C241"></path>
            <path d="M194.231,678.933 C196.568,678.933 198.465,680.831 198.465,683.167 C198.465,685.504 196.568,687.401 194.231,687.401 C191.894,687.401 189.997,685.504 189.997,683.167 C189.997,680.831 191.894,678.933 194.231,678.933 Z" id="Fill-91" fill="#D4DF88"></path>
            <path d="M582.164,355.127 C582.164,353.472 580.82,352.128 579.164,352.128 L571.403,352.128 C569.748,352.128 568.404,353.472 568.404,355.127 L568.404,426.397 C568.404,428.053 569.748,429.397 571.403,429.397 L579.164,429.397 C580.82,429.397 582.164,428.053 582.164,426.397 L582.164,355.127 Z" id="Fill-92"></path>
            <path d="M582.164,355.127 C582.164,353.472 580.82,352.128 579.164,352.128 L571.403,352.128 C569.748,352.128 568.404,353.472 568.404,355.127 L568.404,426.397 C568.404,428.053 569.748,429.397 571.403,429.397 L579.164,429.397 C580.82,429.397 582.164,428.053 582.164,426.397 L582.164,355.127 Z" id="Stroke-93" stroke="#FFFFFF" stroke-width="1.0585"></path>
            <path d="M575.284,354.774 C577.621,354.774 579.518,356.671 579.518,359.008 C579.518,361.345 577.621,363.242 575.284,363.242 C572.947,363.242 571.05,361.345 571.05,359.008 C571.05,356.671 572.947,354.774 575.284,354.774 Z" id="Fill-94" fill="#E2CB54"></path>
            <path d="M575.284,365.359 C577.621,365.359 579.518,367.256 579.518,369.593 C579.518,371.929 577.621,373.827 575.284,373.827 C572.947,373.827 571.05,371.929 571.05,369.593 C571.05,367.256 572.947,365.359 575.284,365.359 Z" id="Fill-95" fill="#D6F2C6"></path>
            <path d="M575.284,375.944 C577.621,375.944 579.518,377.841 579.518,380.177 C579.518,382.514 577.621,384.411 575.284,384.411 C572.947,384.411 571.05,382.514 571.05,380.177 C571.05,377.841 572.947,375.944 575.284,375.944 Z" id="Fill-96" fill="#FAAC14"></path>
            <path d="M575.284,386.528 C577.621,386.528 579.518,388.426 579.518,390.762 C579.518,393.099 577.621,394.996 575.284,394.996 C572.947,394.996 571.05,393.099 571.05,390.762 C571.05,388.426 572.947,386.528 575.284,386.528 Z" id="Fill-97" fill="#DDF7D9"></path>
            <path d="M575.284,397.113 C577.621,397.113 579.518,399.01 579.518,401.347 C579.518,403.684 577.621,405.581 575.284,405.581 C572.947,405.581 571.05,403.684 571.05,401.347 C571.05,399.01 572.947,397.113 575.284,397.113 Z" id="Fill-98" fill="#D5DE86"></path>
            <path d="M575.284,407.698 C577.621,407.698 579.518,409.595 579.518,411.932 C579.518,414.269 577.621,416.166 575.284,416.166 C572.947,416.166 571.05,414.269 571.05,411.932 C571.05,409.595 572.947,407.698 575.284,407.698 Z" id="Fill-99" fill="#DED061"></path>
            <path d="M575.284,418.283 C577.621,418.283 579.518,420.18 579.518,422.517 C579.518,424.853 577.621,426.751 575.284,426.751 C572.947,426.751 571.05,424.853 571.05,422.517 C571.05,420.18 572.947,418.283 575.284,418.283 Z" id="Fill-100" fill="#D7F3CA"></path>
            <path d="M1534.8,3.18 C1534.8,1.53 1533.45,0.18 1531.8,0.18 L1524.04,0.18 C1522.38,0.18 1521.04,1.53 1521.04,3.18 L1521.04,307.318 C1521.04,308.974 1522.38,310.318 1524.04,310.318 L1531.8,310.318 C1533.45,310.318 1534.8,308.974 1534.8,307.318 L1534.8,3.18 Z" id="Fill-101"></path>
            <path d="M1534.8,3.18 C1534.8,1.53 1533.45,0.18 1531.8,0.18 L1524.04,0.18 C1522.38,0.18 1521.04,1.53 1521.04,3.18 L1521.04,307.318 C1521.04,308.974 1522.38,310.318 1524.04,310.318 L1531.8,310.318 C1533.45,310.318 1534.8,308.974 1534.8,307.318 L1534.8,3.18 Z" id="Stroke-102" stroke="#FFFFFF" stroke-width="1.0585"></path>
            <path d="M1527.92,2.83 C1530.25,2.83 1532.15,4.73 1532.15,7.06 C1532.15,9.4 1530.25,11.3 1527.92,11.3 C1525.58,11.3 1523.68,9.4 1523.68,7.06 C1523.68,4.73 1525.58,2.83 1527.92,2.83 Z" id="Fill-103" fill="#FAAB12"></path>
            <path d="M1527.92,13.41 C1530.25,13.41 1532.15,15.31 1532.15,17.65 C1532.15,19.98 1530.25,21.88 1527.92,21.88 C1525.58,21.88 1523.68,19.98 1523.68,17.65 C1523.68,15.31 1525.58,13.41 1527.92,13.41 Z" id="Fill-104" fill="#D3ECB0"></path>
            <path d="M1527.92,24 C1530.25,24 1532.15,25.9 1532.15,28.23 C1532.15,30.57 1530.25,32.47 1527.92,32.47 C1525.58,32.47 1523.68,30.57 1523.68,28.23 C1523.68,25.9 1525.58,24 1527.92,24 Z" id="Fill-105" fill="#D7F3CA"></path>
            <path d="M1527.92,34.58 C1530.25,34.58 1532.15,36.48 1532.15,38.82 C1532.15,41.15 1530.25,43.05 1527.92,43.05 C1525.58,43.05 1523.68,41.15 1523.68,38.82 C1523.68,36.48 1525.58,34.58 1527.92,34.58 Z" id="Fill-106" fill="#F7FFF9"></path>
            <path d="M1527.92,45.17 C1530.25,45.17 1532.15,47.07 1532.15,49.4 C1532.15,51.74 1530.25,53.64 1527.92,53.64 C1525.58,53.64 1523.68,51.74 1523.68,49.4 C1523.68,47.07 1525.58,45.17 1527.92,45.17 Z" id="Fill-107" fill="#E6FAE7"></path>
            <path d="M1527.92,55.75 C1530.25,55.75 1532.15,57.65 1532.15,59.99 C1532.15,62.32 1530.25,64.22 1527.92,64.22 C1525.58,64.22 1523.68,62.32 1523.68,59.99 C1523.68,57.65 1525.58,55.75 1527.92,55.75 Z" id="Fill-108" fill="#E0CD58"></path>
            <path d="M1527.92,66.34 C1530.25,66.34 1532.15,68.235 1532.15,70.572 C1532.15,72.909 1530.25,74.806 1527.92,74.806 C1525.58,74.806 1523.68,72.909 1523.68,70.572 C1523.68,68.235 1525.58,66.34 1527.92,66.34 Z" id="Fill-109" fill="#F1FEF4"></path>
            <path d="M1527.92,76.923 C1530.25,76.923 1532.15,78.82 1532.15,81.157 C1532.15,83.494 1530.25,85.391 1527.92,85.391 C1525.58,85.391 1523.68,83.494 1523.68,81.157 C1523.68,78.82 1525.58,76.923 1527.92,76.923 Z" id="Fill-110" fill="#DDD161"></path>
            <path d="M1527.92,87.508 C1530.25,87.508 1532.15,89.405 1532.15,91.742 C1532.15,94.078 1530.25,95.976 1527.92,95.976 C1525.58,95.976 1523.68,94.078 1523.68,91.742 C1523.68,89.405 1525.58,87.508 1527.92,87.508 Z" id="Fill-111" fill="#FAAC12"></path>
            <path d="M1527.92,98.093 C1530.25,98.093 1532.15,99.99 1532.15,102.326 C1532.15,104.663 1530.25,106.56 1527.92,106.56 C1525.58,106.56 1523.68,104.663 1523.68,102.326 C1523.68,99.99 1525.58,98.093 1527.92,98.093 Z" id="Fill-112" fill="#D4EFBC"></path>
            <path d="M1527.92,108.677 C1530.25,108.677 1532.15,110.575 1532.15,112.911 C1532.15,115.248 1530.25,117.145 1527.92,117.145 C1525.58,117.145 1523.68,115.248 1523.68,112.911 C1523.68,110.575 1525.58,108.677 1527.92,108.677 Z" id="Fill-113" fill="#D4E18C"></path>
            <path d="M1527.92,119.262 C1530.25,119.262 1532.15,121.159 1532.15,123.496 C1532.15,125.833 1530.25,127.73 1527.92,127.73 C1525.58,127.73 1523.68,125.833 1523.68,123.496 C1523.68,121.159 1525.58,119.262 1527.92,119.262 Z" id="Fill-114" fill="#D7DA79"></path>
            <path d="M1527.92,129.847 C1530.25,129.847 1532.15,131.744 1532.15,134.081 C1532.15,136.418 1530.25,138.315 1527.92,138.315 C1525.58,138.315 1523.68,136.418 1523.68,134.081 C1523.68,131.744 1525.58,129.847 1527.92,129.847 Z" id="Fill-115" fill="#DDF6D8"></path>
            <path d="M1527.92,140.432 C1530.25,140.432 1532.15,142.329 1532.15,144.666 C1532.15,147.002 1530.25,148.9 1527.92,148.9 C1525.58,148.9 1523.68,147.002 1523.68,144.666 C1523.68,142.329 1525.58,140.432 1527.92,140.432 Z" id="Fill-116" fill="#E7C343"></path>
            <path d="M1527.92,151.017 C1530.25,151.017 1532.15,152.914 1532.15,155.25 C1532.15,157.587 1530.25,159.484 1527.92,159.484 C1525.58,159.484 1523.68,157.587 1523.68,155.25 C1523.68,152.914 1525.58,151.017 1527.92,151.017 Z" id="Fill-117" fill="#FFA500"></path>
            <path d="M1527.92,161.601 C1530.25,161.601 1532.15,163.499 1532.15,165.835 C1532.15,168.172 1530.25,170.069 1527.92,170.069 C1525.58,170.069 1523.68,168.172 1523.68,165.835 C1523.68,163.499 1525.58,161.601 1527.92,161.601 Z" id="Fill-118" fill="#EAC03C"></path>
            <path d="M1527.92,172.186 C1530.25,172.186 1532.15,174.083 1532.15,176.42 C1532.15,178.757 1530.25,180.654 1527.92,180.654 C1525.58,180.654 1523.68,178.757 1523.68,176.42 C1523.68,174.083 1525.58,172.186 1527.92,172.186 Z" id="Fill-119" fill="#DFF8DD"></path>
            <path d="M1527.92,182.771 C1530.25,182.771 1532.15,184.668 1532.15,187.005 C1532.15,189.342 1530.25,191.239 1527.92,191.239 C1525.58,191.239 1523.68,189.342 1523.68,187.005 C1523.68,184.668 1525.58,182.771 1527.92,182.771 Z" id="Fill-120" fill="#DCF6D7"></path>
            <path d="M1527.92,193.356 C1530.25,193.356 1532.15,195.253 1532.15,197.59 C1532.15,199.926 1530.25,201.824 1527.92,201.824 C1525.58,201.824 1523.68,199.926 1523.68,197.59 C1523.68,195.253 1525.58,193.356 1527.92,193.356 Z" id="Fill-121" fill="#E8C342"></path>
            <path d="M1527.92,203.941 C1530.25,203.941 1532.15,205.838 1532.15,208.174 C1532.15,210.511 1530.25,212.408 1527.92,212.408 C1525.58,212.408 1523.68,210.511 1523.68,208.174 C1523.68,205.838 1525.58,203.941 1527.92,203.941 Z" id="Fill-122" fill="#D3E495"></path>
            <path d="M1527.92,214.525 C1530.25,214.525 1532.15,216.423 1532.15,218.759 C1532.15,221.096 1530.25,222.993 1527.92,222.993 C1525.58,222.993 1523.68,221.096 1523.68,218.759 C1523.68,216.423 1525.58,214.525 1527.92,214.525 Z" id="Fill-123" fill="#F9AE17"></path>
            <path d="M1527.92,225.11 C1530.25,225.11 1532.15,227.007 1532.15,229.344 C1532.15,231.681 1530.25,233.578 1527.92,233.578 C1525.58,233.578 1523.68,231.681 1523.68,229.344 C1523.68,227.007 1525.58,225.11 1527.92,225.11 Z" id="Fill-124" fill="#DEF7DA"></path>
            <path d="M1527.92,235.695 C1530.25,235.695 1532.15,237.592 1532.15,239.929 C1532.15,242.266 1530.25,244.163 1527.92,244.163 C1525.58,244.163 1523.68,242.266 1523.68,239.929 C1523.68,237.592 1525.58,235.695 1527.92,235.695 Z" id="Fill-125" fill="#E9FBEB"></path>
            <path d="M1527.92,246.28 C1530.25,246.28 1532.15,248.177 1532.15,250.514 C1532.15,252.85 1530.25,254.748 1527.92,254.748 C1525.58,254.748 1523.68,252.85 1523.68,250.514 C1523.68,248.177 1525.58,246.28 1527.92,246.28 Z" id="Fill-126" fill="#D6DD80"></path>
            <path d="M1527.92,256.865 C1530.25,256.865 1532.15,258.762 1532.15,261.098 C1532.15,263.435 1530.25,265.332 1527.92,265.332 C1525.58,265.332 1523.68,263.435 1523.68,261.098 C1523.68,258.762 1525.58,256.865 1527.92,256.865 Z" id="Fill-127" fill="#FFA705"></path>
            <path d="M1527.92,267.449 C1530.25,267.449 1532.15,269.347 1532.15,271.683 C1532.15,274.02 1530.25,275.917 1527.92,275.917 C1525.58,275.917 1523.68,274.02 1523.68,271.683 C1523.68,269.347 1525.58,267.449 1527.92,267.449 Z" id="Fill-128" fill="#D3ECB2"></path>
            <path d="M1527.92,278.034 C1530.25,278.034 1532.15,279.931 1532.15,282.268 C1532.15,284.605 1530.25,286.502 1527.92,286.502 C1525.58,286.502 1523.68,284.605 1523.68,282.268 C1523.68,279.931 1525.58,278.034 1527.92,278.034 Z" id="Fill-129" fill="#D3EEB8"></path>
            <path d="M1527.92,288.619 C1530.25,288.619 1532.15,290.516 1532.15,292.853 C1532.15,295.19 1530.25,297.087 1527.92,297.087 C1525.58,297.087 1523.68,295.19 1523.68,292.853 C1523.68,290.516 1525.58,288.619 1527.92,288.619 Z" id="Fill-130" fill="#EBBF3B"></path>
            <path d="M1527.92,299.204 C1530.25,299.204 1532.15,301.101 1532.15,303.438 C1532.15,305.774 1530.25,307.672 1527.92,307.672 C1525.58,307.672 1523.68,305.774 1523.68,303.438 C1523.68,301.101 1525.58,299.204 1527.92,299.204 Z" id="Fill-131" fill="#F7B01B"></path>
            <path d="M1153.74,505.078 C1154.91,505.078 1155.86,506.027 1155.86,507.195 C1155.86,508.363 1154.91,509.312 1153.74,509.312 C1152.57,509.312 1151.63,508.363 1151.63,507.195 C1151.63,506.027 1152.57,505.078 1153.74,505.078 Z" id="Fill-132" fill="#CCCCCC"></path>
            <path d="M391.638,925.824 C392.806,925.824 393.755,926.772 393.755,927.941 C393.755,929.109 392.806,930.058 391.638,930.058 C390.469,930.058 389.521,929.109 389.521,927.941 C389.521,926.772 390.469,925.824 391.638,925.824 Z" id="Fill-133" fill="#CCCCCC"></path>
            <path d="M2106.38,630.773 C2107.54,630.773 2108.49,631.721 2108.49,632.89 C2108.49,634.058 2107.54,635.007 2106.38,635.007 C2105.21,635.007 2104.26,634.058 2104.26,632.89 C2104.26,631.721 2105.21,630.773 2106.38,630.773 Z" id="Fill-134" fill="#CCCCCC"></path>
            <path d="M1534.8,614.243 C1545.82,614.243 1554.77,623.191 1554.77,634.213 C1554.77,645.234 1545.82,654.182 1534.8,654.182 C1523.77,654.182 1514.83,645.234 1514.83,634.213 C1514.83,623.191 1523.77,614.243 1534.8,614.243 Z" id="Fill-135" fill="#FFFFFF"></path>
            <path d="M1534.8,756.467 C1535.96,756.467 1536.91,757.416 1536.91,758.584 C1536.91,759.752 1535.96,760.701 1534.8,760.701 C1533.63,760.701 1532.68,759.752 1532.68,758.584 C1532.68,757.416 1533.63,756.467 1534.8,756.467 Z" id="Fill-136" fill="#CCCCCC"></path>
            <path d="M1153.74,597.695 C1154.91,597.695 1155.86,598.644 1155.86,599.812 C1155.86,600.98 1154.91,601.929 1153.74,601.929 C1152.57,601.929 1151.63,600.98 1151.63,599.812 C1151.63,598.644 1152.57,597.695 1153.74,597.695 Z" id="Fill-137" fill="#CCCCCC"></path>
            <path d="M1344.27,563.295 C1345.44,563.295 1346.39,564.243 1346.39,565.411 C1346.39,566.58 1345.44,567.528 1344.27,567.528 C1343.1,567.528 1342.15,566.58 1342.15,565.411 C1342.15,564.243 1343.1,563.295 1344.27,563.295 Z" id="Fill-138" fill="#CCCCCC"></path>
            <path d="M963.217,316.619 C968.356,316.619 972.528,320.791 972.528,325.93 C972.528,331.069 968.356,335.242 963.217,335.242 C958.078,335.242 953.905,331.069 953.905,325.93 C953.905,320.791 958.078,316.619 963.217,316.619 Z" id="Fill-139" fill="#FFFFFF"></path>
            <path d="M1153.74,924.501 C1154.91,924.501 1155.86,925.449 1155.86,926.618 C1155.86,927.786 1154.91,928.735 1153.74,928.735 C1152.57,928.735 1151.63,927.786 1151.63,926.618 C1151.63,925.449 1152.57,924.501 1153.74,924.501 Z" id="Fill-140" fill="#CCCCCC"></path>
            <path d="M1153.74,68.585 C1171.64,68.585 1186.16,83.111 1186.16,101.003 C1186.16,118.895 1171.64,133.421 1153.74,133.421 C1135.85,133.421 1121.33,118.895 1121.33,101.003 C1121.33,83.111 1135.85,68.585 1153.74,68.585 Z" id="Fill-141" fill="#FFFFFF"></path>
            <path d="M1534.8,359.261 C1553.64,359.261 1568.94,374.562 1568.94,393.408 C1568.94,412.255 1553.64,427.556 1534.8,427.556 C1515.95,427.556 1500.65,412.255 1500.65,393.408 C1500.65,374.562 1515.95,359.261 1534.8,359.261 Z" id="Fill-142" fill="#FFFFFF"></path>
            <path d="M1153.74,191.025 C1169.78,191.025 1182.8,204.045 1182.8,220.082 C1182.8,236.12 1169.78,249.14 1153.74,249.14 C1137.71,249.14 1124.69,236.12 1124.69,220.082 C1124.69,204.045 1137.71,191.025 1153.74,191.025 Z" id="Fill-143" fill="#FFFFFF"></path>
            <path d="M1344.27,180.597 C1360.95,180.597 1374.49,194.14 1374.49,210.821 C1374.49,227.502 1360.95,241.045 1344.27,241.045 C1327.59,241.045 1314.05,227.502 1314.05,210.821 C1314.05,194.14 1327.59,180.597 1344.27,180.597 Z" id="Fill-144" fill="#FFFFFF"></path>
            <path d="M582.164,909.506 C582.164,907.851 580.82,906.507 579.164,906.507 L571.403,906.507 C569.748,906.507 568.404,907.851 568.404,909.506 L568.404,1033.7 C568.404,1035.3554 569.748,1036.6997 571.403,1036.6997 L579.164,1036.6997 C580.82,1036.6997 582.164,1035.3554 582.164,1033.7 L582.164,909.506 Z" id="Fill-145"></path>
            <path d="M582.164,909.506 C582.164,907.851 580.82,906.507 579.164,906.507 L571.403,906.507 C569.748,906.507 568.404,907.851 568.404,909.506 L568.404,1033.7 C568.404,1035.3554 569.748,1036.6997 571.403,1036.6997 L579.164,1036.6997 C580.82,1036.6997 582.164,1035.3554 582.164,1033.7 L582.164,909.506 Z" id="Stroke-146" stroke="#FFFFFF" stroke-width="1.0585"></path>
            <path d="M575.284,909.153 C577.621,909.153 579.518,911.05 579.518,913.387 C579.518,915.724 577.621,917.621 575.284,917.621 C572.947,917.621 571.05,915.724 571.05,913.387 C571.05,911.05 572.947,909.153 575.284,909.153 Z" id="Fill-147" fill="#D7DB7C"></path>
            <path d="M575.284,919.738 C577.621,919.738 579.518,921.635 579.518,923.972 C579.518,926.308 577.621,928.205 575.284,928.205 C572.947,928.205 571.05,926.308 571.05,923.972 C571.05,921.635 572.947,919.738 575.284,919.738 Z" id="Fill-148" fill="#E8FBEA"></path>
            <path d="M575.284,930.322 C577.621,930.322 579.518,932.22 579.518,934.556 C579.518,936.893 577.621,938.79 575.284,938.79 C572.947,938.79 571.05,936.893 571.05,934.556 C571.05,932.22 572.947,930.322 575.284,930.322 Z" id="Fill-149" fill="#D3E394"></path>
            <path d="M575.284,940.907 C577.621,940.907 579.518,942.804 579.518,945.141 C579.518,947.478 577.621,949.375 575.284,949.375 C572.947,949.375 571.05,947.478 571.05,945.141 C571.05,942.804 572.947,940.907 575.284,940.907 Z" id="Fill-150" fill="#FAAC12"></path>
            <path d="M575.284,951.492 C577.621,951.492 579.518,953.389 579.518,955.726 C579.518,958.063 577.621,959.96 575.284,959.96 C572.947,959.96 571.05,958.063 571.05,955.726 C571.05,953.389 572.947,951.492 575.284,951.492 Z" id="Fill-151" fill="#F5FFF8"></path>
            <path d="M575.284,962.077 C577.621,962.077 579.518,963.974 579.518,966.311 C579.518,968.6475 577.621,970.5447 575.284,970.5447 C572.947,970.5447 571.05,968.6475 571.05,966.311 C571.05,963.974 572.947,962.077 575.284,962.077 Z" id="Fill-152" fill="#D4E28F"></path>
            <path d="M575.284,972.6616 C577.621,972.6616 579.518,974.5588 579.518,976.8956 C579.518,979.2323 577.621,981.1295 575.284,981.1295 C572.947,981.1295 571.05,979.2323 571.05,976.8956 C571.05,974.5588 572.947,972.6616 575.284,972.6616 Z" id="Fill-153" fill="#D8F4CD"></path>
            <path d="M575.284,983.2464 C577.621,983.2464 579.518,985.1436 579.518,987.4804 C579.518,989.8171 577.621,991.7143 575.284,991.7143 C572.947,991.7143 571.05,989.8171 571.05,987.4804 C571.05,985.1436 572.947,983.2464 575.284,983.2464 Z" id="Fill-154" fill="#D3E496"></path>
            <path d="M575.284,993.8312 C577.621,993.8312 579.518,995.7284 579.518,998.0652 C579.518,1000.4019 577.621,1002.2991 575.284,1002.2991 C572.947,1002.2991 571.05,1000.4019 571.05,998.0652 C571.05,995.7284 572.947,993.8312 575.284,993.8312 Z" id="Fill-155" fill="#D9D770"></path>
            <path d="M575.284,1004.416 C577.621,1004.416 579.518,1006.3132 579.518,1008.65 C579.518,1010.9867 577.621,1012.8839 575.284,1012.8839 C572.947,1012.8839 571.05,1010.9867 571.05,1008.65 C571.05,1006.3132 572.947,1004.416 575.284,1004.416 Z" id="Fill-156" fill="#F8AF1A"></path>
            <path d="M575.284,1015.0008 C577.621,1015.0008 579.518,1016.898 579.518,1019.2348 C579.518,1021.5715 577.621,1023.4687 575.284,1023.4687 C572.947,1023.4687 571.05,1021.5715 571.05,1019.2348 C571.05,1016.898 572.947,1015.0008 575.284,1015.0008 Z" id="Fill-157" fill="#E4C84C"></path>
            <path d="M575.284,1025.5856 C577.621,1025.5856 579.518,1027.4828 579.518,1029.8196 C579.518,1032.1563 577.621,1034.0535 575.284,1034.0535 C572.947,1034.0535 571.05,1032.1563 571.05,1029.8196 C571.05,1027.4828 572.947,1025.5856 575.284,1025.5856 Z" id="Fill-158" fill="#DAF5D2"></path>
            <path d="M201.111,352.83 C217.665,352.83 231.105,366.269 231.105,382.824 C231.105,399.378 217.665,412.818 201.111,412.818 C184.557,412.818 171.117,399.378 171.117,382.824 C171.117,366.269 184.557,352.83 201.111,352.83 Z" id="Fill-159" fill="#FFFFFF"></path>
            <path d="M201.111,583.141 C202.28,583.141 203.228,584.09 203.228,585.258 C203.228,586.426 202.28,587.375 201.111,587.375 C199.943,587.375 198.994,586.426 198.994,585.258 C198.994,584.09 199.943,583.141 201.111,583.141 Z" id="Fill-160" fill="#CCCCCC"></path>
            <path d="M1725.32,428.338 C1726.49,428.338 1727.44,429.287 1727.44,430.455 C1727.44,431.624 1726.49,432.572 1725.32,432.572 C1724.15,432.572 1723.21,431.624 1723.21,430.455 C1723.21,429.287 1724.15,428.338 1725.32,428.338 Z" id="Fill-161" fill="#CCCCCC"></path>
            <path d="M1344.27,624.138 C1349.83,624.138 1354.34,628.652 1354.34,634.213 C1354.34,639.773 1349.83,644.287 1344.27,644.287 C1338.71,644.287 1334.19,639.773 1334.19,634.213 C1334.19,628.652 1338.71,624.138 1344.27,624.138 Z" id="Fill-162" fill="#FFFFFF"></path>
            <path d="M10.5848,348.423 C16.4267,348.423 21.1696,353.166 21.1696,359.008 C21.1696,364.85 16.4267,369.593 10.5848,369.593 C4.7429,369.593 0,364.85 0,359.008 C0,353.166 4.7429,348.423 10.5848,348.423 Z" id="Fill-163" fill="#FFA500"></path>
            <path d="M1153.74,256.876 C1171.41,256.876 1185.75,271.218 1185.75,288.884 C1185.75,306.549 1171.41,320.891 1153.74,320.891 C1136.08,320.891 1121.74,306.549 1121.74,288.884 C1121.74,271.218 1136.08,256.876 1153.74,256.876 Z" id="Fill-164" fill="#FFFFFF"></path>
            <path d="M201.111,925.824 C202.28,925.824 203.228,926.772 203.228,927.941 C203.228,929.109 202.28,930.058 201.111,930.058 C199.943,930.058 198.994,929.109 198.994,927.941 C198.994,926.772 199.943,925.824 201.111,925.824 Z" id="Fill-165" fill="#CCCCCC"></path>
            <path d="M1725.32,476.853 C1725.32,475.197 1723.98,473.853 1722.32,473.853 L1714.56,473.853 C1712.91,473.853 1711.56,475.197 1711.56,476.853 L1711.56,791.573 C1711.56,793.228 1712.91,794.572 1714.56,794.572 L1722.32,794.572 C1723.98,794.572 1725.32,793.228 1725.32,791.573 L1725.32,476.853 Z" id="Fill-166"></path>
            <path d="M1725.32,476.853 C1725.32,475.197 1723.98,473.853 1722.32,473.853 L1714.56,473.853 C1712.91,473.853 1711.56,475.197 1711.56,476.853 L1711.56,791.573 C1711.56,793.228 1712.91,794.572 1714.56,794.572 L1722.32,794.572 C1723.98,794.572 1725.32,793.228 1725.32,791.573 L1725.32,476.853 Z" id="Stroke-167" stroke="#FFFFFF" stroke-width="1.0585"></path>
            <path d="M1718.44,476.499 C1720.78,476.499 1722.68,478.396 1722.68,480.733 C1722.68,483.07 1720.78,484.967 1718.44,484.967 C1716.11,484.967 1714.21,483.07 1714.21,480.733 C1714.21,478.396 1716.11,476.499 1718.44,476.499 Z" id="Fill-168" fill="#D2E59B"></path>
            <path d="M1718.44,487.084 C1720.78,487.084 1722.68,488.981 1722.68,491.318 C1722.68,493.655 1720.78,495.552 1718.44,495.552 C1716.11,495.552 1714.21,493.655 1714.21,491.318 C1714.21,488.981 1716.11,487.084 1718.44,487.084 Z" id="Fill-169" fill="#FCA80A"></path>
            <path d="M1718.44,497.669 C1720.78,497.669 1722.68,499.566 1722.68,501.903 C1722.68,504.239 1720.78,506.137 1718.44,506.137 C1716.11,506.137 1714.21,504.239 1714.21,501.903 C1714.21,499.566 1716.11,497.669 1718.44,497.669 Z" id="Fill-170" fill="#DED05F"></path>
            <path d="M1718.44,508.254 C1720.78,508.254 1722.68,510.151 1722.68,512.487 C1722.68,514.824 1720.78,516.721 1718.44,516.721 C1716.11,516.721 1714.21,514.824 1714.21,512.487 C1714.21,510.151 1716.11,508.254 1718.44,508.254 Z" id="Fill-171" fill="#E3F9E3"></path>
            <path d="M1718.44,518.838 C1720.78,518.838 1722.68,520.736 1722.68,523.072 C1722.68,525.409 1720.78,527.306 1718.44,527.306 C1716.11,527.306 1714.21,525.409 1714.21,523.072 C1714.21,520.736 1716.11,518.838 1718.44,518.838 Z" id="Fill-172" fill="#E1CC57"></path>
            <path d="M1718.44,529.423 C1720.78,529.423 1722.68,531.32 1722.68,533.657 C1722.68,535.994 1720.78,537.891 1718.44,537.891 C1716.11,537.891 1714.21,535.994 1714.21,533.657 C1714.21,531.32 1716.11,529.423 1718.44,529.423 Z" id="Fill-173" fill="#E9FBEC"></path>
            <path d="M1718.44,540.008 C1720.78,540.008 1722.68,541.905 1722.68,544.242 C1722.68,546.579 1720.78,548.476 1718.44,548.476 C1716.11,548.476 1714.21,546.579 1714.21,544.242 C1714.21,541.905 1716.11,540.008 1718.44,540.008 Z" id="Fill-174" fill="#D8D874"></path>
            <path d="M1718.44,550.593 C1720.78,550.593 1722.68,552.49 1722.68,554.827 C1722.68,557.163 1720.78,559.061 1718.44,559.061 C1716.11,559.061 1714.21,557.163 1714.21,554.827 C1714.21,552.49 1716.11,550.593 1718.44,550.593 Z" id="Fill-175" fill="#E8FAE9"></path>
            <path d="M1718.44,561.178 C1720.78,561.178 1722.68,563.075 1722.68,565.411 C1722.68,567.748 1720.78,569.645 1718.44,569.645 C1716.11,569.645 1714.21,567.748 1714.21,565.411 C1714.21,563.075 1716.11,561.178 1718.44,561.178 Z" id="Fill-176" fill="#D2EBAE"></path>
            <path d="M1718.44,571.762 C1720.78,571.762 1722.68,573.66 1722.68,575.996 C1722.68,578.333 1720.78,580.23 1718.44,580.23 C1716.11,580.23 1714.21,578.333 1714.21,575.996 C1714.21,573.66 1716.11,571.762 1718.44,571.762 Z" id="Fill-177" fill="#D3EDB6"></path>
            <path d="M1718.44,582.347 C1720.78,582.347 1722.68,584.244 1722.68,586.581 C1722.68,588.918 1720.78,590.815 1718.44,590.815 C1716.11,590.815 1714.21,588.918 1714.21,586.581 C1714.21,584.244 1716.11,582.347 1718.44,582.347 Z" id="Fill-178" fill="#E6C648"></path>
            <path d="M1718.44,592.932 C1720.78,592.932 1722.68,594.829 1722.68,597.166 C1722.68,599.503 1720.78,601.4 1718.44,601.4 C1716.11,601.4 1714.21,599.503 1714.21,597.166 C1714.21,594.829 1716.11,592.932 1718.44,592.932 Z" id="Fill-179" fill="#F4B323"></path>
            <path d="M1718.44,603.517 C1720.78,603.517 1722.68,605.414 1722.68,607.751 C1722.68,610.087 1720.78,611.985 1718.44,611.985 C1716.11,611.985 1714.21,610.087 1714.21,607.751 C1714.21,605.414 1716.11,603.517 1718.44,603.517 Z" id="Fill-180" fill="#E2F9E2"></path>
            <path d="M1718.44,614.102 C1720.78,614.102 1722.68,615.999 1722.68,618.335 C1722.68,620.672 1720.78,622.569 1718.44,622.569 C1716.11,622.569 1714.21,620.672 1714.21,618.335 C1714.21,615.999 1716.11,614.102 1718.44,614.102 Z" id="Fill-181" fill="#FEFFFF"></path>
            <path d="M1718.44,624.686 C1720.78,624.686 1722.68,626.584 1722.68,628.92 C1722.68,631.257 1720.78,633.154 1718.44,633.154 C1716.11,633.154 1714.21,631.257 1714.21,628.92 C1714.21,626.584 1716.11,624.686 1718.44,624.686 Z" id="Fill-182" fill="#F4B424"></path>
            <path d="M1718.44,635.271 C1720.78,635.271 1722.68,637.168 1722.68,639.505 C1722.68,641.842 1720.78,643.739 1718.44,643.739 C1716.11,643.739 1714.21,641.842 1714.21,639.505 C1714.21,637.168 1716.11,635.271 1718.44,635.271 Z" id="Fill-183" fill="#D6F2C6"></path>
            <path d="M1718.44,645.856 C1720.78,645.856 1722.68,647.753 1722.68,650.09 C1722.68,652.427 1720.78,654.324 1718.44,654.324 C1716.11,654.324 1714.21,652.427 1714.21,650.09 C1714.21,647.753 1716.11,645.856 1718.44,645.856 Z" id="Fill-184" fill="#D3E292"></path>
            <path d="M1718.44,656.441 C1720.78,656.441 1722.68,658.338 1722.68,660.675 C1722.68,663.011 1720.78,664.909 1718.44,664.909 C1716.11,664.909 1714.21,663.011 1714.21,660.675 C1714.21,658.338 1716.11,656.441 1718.44,656.441 Z" id="Fill-185" fill="#DDF6D8"></path>
            <path d="M1718.44,667.026 C1720.78,667.026 1722.68,668.923 1722.68,671.259 C1722.68,673.596 1720.78,675.493 1718.44,675.493 C1716.11,675.493 1714.21,673.596 1714.21,671.259 C1714.21,668.923 1716.11,667.026 1718.44,667.026 Z" id="Fill-186" fill="#D2E9A8"></path>
            <path d="M1718.44,677.61 C1720.78,677.61 1722.68,679.508 1722.68,681.844 C1722.68,684.181 1720.78,686.078 1718.44,686.078 C1716.11,686.078 1714.21,684.181 1714.21,681.844 C1714.21,679.508 1716.11,677.61 1718.44,677.61 Z" id="Fill-187" fill="#DAD56C"></path>
            <path d="M1718.44,688.195 C1720.78,688.195 1722.68,690.092 1722.68,692.429 C1722.68,694.766 1720.78,696.663 1718.44,696.663 C1716.11,696.663 1714.21,694.766 1714.21,692.429 C1714.21,690.092 1716.11,688.195 1718.44,688.195 Z" id="Fill-188" fill="#EDFCF0"></path>
            <path d="M1718.44,698.78 C1720.78,698.78 1722.68,700.677 1722.68,703.014 C1722.68,705.351 1720.78,707.248 1718.44,707.248 C1716.11,707.248 1714.21,705.351 1714.21,703.014 C1714.21,700.677 1716.11,698.78 1718.44,698.78 Z" id="Fill-189" fill="#D5DF86"></path>
            <path d="M1718.44,709.365 C1720.78,709.365 1722.68,711.262 1722.68,713.599 C1722.68,715.935 1720.78,717.833 1718.44,717.833 C1716.11,717.833 1714.21,715.935 1714.21,713.599 C1714.21,711.262 1716.11,709.365 1718.44,709.365 Z" id="Fill-190" fill="#ECBE39"></path>
            <path d="M1718.44,719.95 C1720.78,719.95 1722.68,721.847 1722.68,724.183 C1722.68,726.52 1720.78,728.417 1718.44,728.417 C1716.11,728.417 1714.21,726.52 1714.21,724.183 C1714.21,721.847 1716.11,719.95 1718.44,719.95 Z" id="Fill-191" fill="#F3FEF5"></path>
            <path d="M1718.44,730.534 C1720.78,730.534 1722.68,732.432 1722.68,734.768 C1722.68,737.105 1720.78,739.002 1718.44,739.002 C1716.11,739.002 1714.21,737.105 1714.21,734.768 C1714.21,732.432 1716.11,730.534 1718.44,730.534 Z" id="Fill-192" fill="#E8FAEA"></path>
            <path d="M1718.44,741.119 C1720.78,741.119 1722.68,743.016 1722.68,745.353 C1722.68,747.69 1720.78,749.587 1718.44,749.587 C1716.11,749.587 1714.21,747.69 1714.21,745.353 C1714.21,743.016 1716.11,741.119 1718.44,741.119 Z" id="Fill-193" fill="#D9F4CF"></path>
            <path d="M1718.44,751.704 C1720.78,751.704 1722.68,753.601 1722.68,755.938 C1722.68,758.275 1720.78,760.172 1718.44,760.172 C1716.11,760.172 1714.21,758.275 1714.21,755.938 C1714.21,753.601 1716.11,751.704 1718.44,751.704 Z" id="Fill-194" fill="#D4EFBA"></path>
            <path d="M1718.44,762.289 C1720.78,762.289 1722.68,764.186 1722.68,766.523 C1722.68,768.859 1720.78,770.757 1718.44,770.757 C1716.11,770.757 1714.21,768.859 1714.21,766.523 C1714.21,764.186 1716.11,762.289 1718.44,762.289 Z" id="Fill-195" fill="#D7F2C8"></path>
            <path d="M1718.44,772.874 C1720.78,772.874 1722.68,774.771 1722.68,777.107 C1722.68,779.444 1720.78,781.341 1718.44,781.341 C1716.11,781.341 1714.21,779.444 1714.21,777.107 C1714.21,774.771 1716.11,772.874 1718.44,772.874 Z" id="Fill-196" fill="#D5F1C3"></path>
            <path d="M1718.44,783.458 C1720.78,783.458 1722.68,785.356 1722.68,787.692 C1722.68,790.029 1720.78,791.926 1718.44,791.926 C1716.11,791.926 1714.21,790.029 1714.21,787.692 C1714.21,785.356 1716.11,783.458 1718.44,783.458 Z" id="Fill-197" fill="#D7D978"></path>
            <path d="M10.5848,815.477 C16.4267,815.477 21.1696,820.22 21.1696,826.062 C21.1696,831.904 16.4267,836.647 10.5848,836.647 C4.7429,836.647 0,831.904 0,826.062 C0,820.22 4.7429,815.477 10.5848,815.477 Z" id="Fill-198" fill="#FFA500"></path>
            <path d="M1534.8,860.368 C1554.57,860.368 1570.61,876.417 1570.61,896.186 C1570.61,915.955 1554.57,932.005 1534.8,932.005 C1515.03,932.005 1498.98,915.955 1498.98,896.186 C1498.98,876.417 1515.03,860.368 1534.8,860.368 Z" id="Fill-199" fill="#FFFFFF"></path>
            <path d="M772.69,175.186 C772.69,173.53 771.346,172.186 769.691,172.186 L761.93,172.186 C760.274,172.186 758.93,173.53 758.93,175.186 L758.93,288.795 C758.93,290.45 760.274,291.794 761.93,291.794 L769.691,291.794 C771.346,291.794 772.69,290.45 772.69,288.795 L772.69,175.186 Z" id="Fill-200"></path>
            <path d="M772.69,175.186 C772.69,173.53 771.346,172.186 769.691,172.186 L761.93,172.186 C760.274,172.186 758.93,173.53 758.93,175.186 L758.93,288.795 C758.93,290.45 760.274,291.794 761.93,291.794 L769.691,291.794 C771.346,291.794 772.69,290.45 772.69,288.795 L772.69,175.186 Z" id="Stroke-201" stroke="#FFFFFF" stroke-width="1.0585"></path>
            <path d="M765.81,174.832 C768.147,174.832 770.044,176.73 770.044,179.066 C770.044,181.403 768.147,183.3 765.81,183.3 C763.474,183.3 761.576,181.403 761.576,179.066 C761.576,176.73 763.474,174.832 765.81,174.832 Z" id="Fill-202" fill="#F3B527"></path>
            <path d="M765.81,185.417 C768.147,185.417 770.044,187.314 770.044,189.651 C770.044,191.988 768.147,193.885 765.81,193.885 C763.474,193.885 761.576,191.988 761.576,189.651 C761.576,187.314 763.474,185.417 765.81,185.417 Z" id="Fill-203" fill="#FFA604"></path>
            <path d="M765.81,196.002 C768.147,196.002 770.044,197.899 770.044,200.236 C770.044,202.573 768.147,204.47 765.81,204.47 C763.474,204.47 761.576,202.573 761.576,200.236 C761.576,197.899 763.474,196.002 765.81,196.002 Z" id="Fill-204" fill="#D4EFBA"></path>
            <path d="M765.81,206.587 C768.147,206.587 770.044,208.484 770.044,210.821 C770.044,213.157 768.147,215.055 765.81,215.055 C763.474,215.055 761.576,213.157 761.576,210.821 C761.576,208.484 763.474,206.587 765.81,206.587 Z" id="Fill-205" fill="#E5C649"></path>
            <path d="M765.81,217.172 C768.147,217.172 770.044,219.069 770.044,221.405 C770.044,223.742 768.147,225.639 765.81,225.639 C763.474,225.639 761.576,223.742 761.576,221.405 C761.576,219.069 763.474,217.172 765.81,217.172 Z" id="Fill-206" fill="#D7F2C8"></path>
            <path d="M765.81,227.756 C768.147,227.756 770.044,229.654 770.044,231.99 C770.044,234.327 768.147,236.224 765.81,236.224 C763.474,236.224 761.576,234.327 761.576,231.99 C761.576,229.654 763.474,227.756 765.81,227.756 Z" id="Fill-207" fill="#EAFBEC"></path>
            <path d="M765.81,238.341 C768.147,238.341 770.044,240.238 770.044,242.575 C770.044,244.912 768.147,246.809 765.81,246.809 C763.474,246.809 761.576,244.912 761.576,242.575 C761.576,240.238 763.474,238.341 765.81,238.341 Z" id="Fill-208" fill="#EAC03D"></path>
            <path d="M765.81,248.926 C768.147,248.926 770.044,250.823 770.044,253.16 C770.044,255.497 768.147,257.394 765.81,257.394 C763.474,257.394 761.576,255.497 761.576,253.16 C761.576,250.823 763.474,248.926 765.81,248.926 Z" id="Fill-209" fill="#F8AE17"></path>
            <path d="M765.81,259.511 C768.147,259.511 770.044,261.408 770.044,263.745 C770.044,266.081 768.147,267.979 765.81,267.979 C763.474,267.979 761.576,266.081 761.576,263.745 C761.576,261.408 763.474,259.511 765.81,259.511 Z" id="Fill-210" fill="#DDD263"></path>
            <path d="M765.81,270.096 C768.147,270.096 770.044,271.993 770.044,274.329 C770.044,276.666 768.147,278.563 765.81,278.563 C763.474,278.563 761.576,276.666 761.576,274.329 C761.576,271.993 763.474,270.096 765.81,270.096 Z" id="Fill-211" fill="#D3E59A"></path>
            <path d="M765.81,280.68 C768.147,280.68 770.044,282.578 770.044,284.914 C770.044,287.251 768.147,289.148 765.81,289.148 C763.474,289.148 761.576,287.251 761.576,284.914 C761.576,282.578 763.474,280.68 765.81,280.68 Z" id="Fill-212" fill="#E0F8DF"></path>
            <path d="M1915.85,110.794 C1917.02,110.794 1917.97,111.743 1917.97,112.911 C1917.97,114.08 1917.02,115.028 1915.85,115.028 C1914.68,115.028 1913.73,114.08 1913.73,112.911 C1913.73,111.743 1914.68,110.794 1915.85,110.794 Z" id="Fill-213" fill="#CCCCCC"></path>
            <path d="M582.164,274.859 C583.332,274.859 584.281,275.807 584.281,276.976 C584.281,278.144 583.332,279.093 582.164,279.093 C580.996,279.093 580.047,278.144 580.047,276.976 C580.047,275.807 580.996,274.859 582.164,274.859 Z" id="Fill-214" fill="#CCCCCC"></path>
            <path d="M1915.85,599.392 C1934.34,599.392 1949.35,614.402 1949.35,632.89 C1949.35,651.377 1934.34,666.387 1915.85,666.387 C1897.36,666.387 1882.35,651.377 1882.35,632.89 C1882.35,614.402 1897.36,599.392 1915.85,599.392 Z" id="Fill-215" fill="#FFFFFF"></path>
            <path d="M1344.27,873.908 C1356.57,873.908 1366.55,883.89 1366.55,896.186 C1366.55,908.483 1356.57,918.465 1344.27,918.465 C1331.97,918.465 1321.99,908.483 1321.99,896.186 C1321.99,883.89 1331.97,873.908 1344.27,873.908 Z" id="Fill-216" fill="#FFFFFF"></path>
            <path d="M2106.38,53.46 C2106.38,51.81 2105.03,50.46 2103.38,50.46 L2095.61,50.46 C2093.96,50.46 2092.61,51.81 2092.61,53.46 L2092.61,368.181 C2092.61,369.836 2093.96,371.18 2095.61,371.18 L2103.38,371.18 C2105.03,371.18 2106.38,369.836 2106.38,368.181 L2106.38,53.46 Z" id="Fill-217"></path>
            <path d="M2106.38,53.46 C2106.38,51.81 2105.03,50.46 2103.38,50.46 L2095.61,50.46 C2093.96,50.46 2092.61,51.81 2092.61,53.46 L2092.61,368.181 C2092.61,369.836 2093.96,371.18 2095.61,371.18 L2103.38,371.18 C2105.03,371.18 2106.38,369.836 2106.38,368.181 L2106.38,53.46 Z" id="Stroke-218" stroke="#FFFFFF" stroke-width="1.0585"></path>
            <path d="M2099.5,53.11 C2101.83,53.11 2103.73,55 2103.73,57.34 C2103.73,59.68 2101.83,61.57 2099.5,61.57 C2097.16,61.57 2095.26,59.68 2095.26,57.34 C2095.26,55 2097.16,53.11 2099.5,53.11 Z" id="Fill-219" fill="#D3E599"></path>
            <path d="M2099.5,63.69 C2101.83,63.69 2103.73,65.59 2103.73,67.93 C2103.73,70.263 2101.83,72.16 2099.5,72.16 C2097.16,72.16 2095.26,70.263 2095.26,67.93 C2095.26,65.59 2097.16,63.69 2099.5,63.69 Z" id="Fill-220" fill="#DDD264"></path>
            <path d="M2099.5,74.277 C2101.83,74.277 2103.73,76.174 2103.73,78.511 C2103.73,80.847 2101.83,82.745 2099.5,82.745 C2097.16,82.745 2095.26,80.847 2095.26,78.511 C2095.26,76.174 2097.16,74.277 2099.5,74.277 Z" id="Fill-221" fill="#ECBD37"></path>
            <path d="M2099.5,84.862 C2101.83,84.862 2103.73,86.759 2103.73,89.095 C2103.73,91.432 2101.83,93.329 2099.5,93.329 C2097.16,93.329 2095.26,91.432 2095.26,89.095 C2095.26,86.759 2097.16,84.862 2099.5,84.862 Z" id="Fill-222" fill="#D8D977"></path>
            <path d="M2099.5,95.446 C2101.83,95.446 2103.73,97.344 2103.73,99.68 C2103.73,102.017 2101.83,103.914 2099.5,103.914 C2097.16,103.914 2095.26,102.017 2095.26,99.68 C2095.26,97.344 2097.16,95.446 2099.5,95.446 Z" id="Fill-223" fill="#F1B72B"></path>
            <path d="M2099.5,106.031 C2101.83,106.031 2103.73,107.928 2103.73,110.265 C2103.73,112.602 2101.83,114.499 2099.5,114.499 C2097.16,114.499 2095.26,112.602 2095.26,110.265 C2095.26,107.928 2097.16,106.031 2099.5,106.031 Z" id="Fill-224" fill="#E9C240"></path>
            <path d="M2099.5,116.616 C2101.83,116.616 2103.73,118.513 2103.73,120.85 C2103.73,123.187 2101.83,125.084 2099.5,125.084 C2097.16,125.084 2095.26,123.187 2095.26,120.85 C2095.26,118.513 2097.16,116.616 2099.5,116.616 Z" id="Fill-225" fill="#D8D874"></path>
            <path d="M2099.5,127.201 C2101.83,127.201 2103.73,129.098 2103.73,131.435 C2103.73,133.771 2101.83,135.669 2099.5,135.669 C2097.16,135.669 2095.26,133.771 2095.26,131.435 C2095.26,129.098 2097.16,127.201 2099.5,127.201 Z" id="Fill-226" fill="#EAC03C"></path>
            <path d="M2099.5,137.786 C2101.83,137.786 2103.73,139.683 2103.73,142.019 C2103.73,144.356 2101.83,146.253 2099.5,146.253 C2097.16,146.253 2095.26,144.356 2095.26,142.019 C2095.26,139.683 2097.16,137.786 2099.5,137.786 Z" id="Fill-227" fill="#FAFFFC"></path>
            <path d="M2099.5,148.37 C2101.83,148.37 2103.73,150.268 2103.73,152.604 C2103.73,154.941 2101.83,156.838 2099.5,156.838 C2097.16,156.838 2095.26,154.941 2095.26,152.604 C2095.26,150.268 2097.16,148.37 2099.5,148.37 Z" id="Fill-228" fill="#DAF5D3"></path>
            <path d="M2099.5,158.955 C2101.83,158.955 2103.73,160.852 2103.73,163.189 C2103.73,165.526 2101.83,167.423 2099.5,167.423 C2097.16,167.423 2095.26,165.526 2095.26,163.189 C2095.26,160.852 2097.16,158.955 2099.5,158.955 Z" id="Fill-229" fill="#E4F9E5"></path>
            <path d="M2099.5,169.54 C2101.83,169.54 2103.73,171.437 2103.73,173.774 C2103.73,176.111 2101.83,178.008 2099.5,178.008 C2097.16,178.008 2095.26,176.111 2095.26,173.774 C2095.26,171.437 2097.16,169.54 2099.5,169.54 Z" id="Fill-230" fill="#D3ECB1"></path>
            <path d="M2099.5,180.125 C2101.83,180.125 2103.73,182.022 2103.73,184.359 C2103.73,186.695 2101.83,188.593 2099.5,188.593 C2097.16,188.593 2095.26,186.695 2095.26,184.359 C2095.26,182.022 2097.16,180.125 2099.5,180.125 Z" id="Fill-231" fill="#FAAC14"></path>
            <path d="M2099.5,190.71 C2101.83,190.71 2103.73,192.607 2103.73,194.943 C2103.73,197.28 2101.83,199.177 2099.5,199.177 C2097.16,199.177 2095.26,197.28 2095.26,194.943 C2095.26,192.607 2097.16,190.71 2099.5,190.71 Z" id="Fill-232" fill="#E4C84D"></path>
            <path d="M2099.5,201.294 C2101.83,201.294 2103.73,203.192 2103.73,205.528 C2103.73,207.865 2101.83,209.762 2099.5,209.762 C2097.16,209.762 2095.26,207.865 2095.26,205.528 C2095.26,203.192 2097.16,201.294 2099.5,201.294 Z" id="Fill-233" fill="#DBD469"></path>
            <path d="M2099.5,211.879 C2101.83,211.879 2103.73,213.776 2103.73,216.113 C2103.73,218.45 2101.83,220.347 2099.5,220.347 C2097.16,220.347 2095.26,218.45 2095.26,216.113 C2095.26,213.776 2097.16,211.879 2099.5,211.879 Z" id="Fill-234" fill="#E7FAE9"></path>
            <path d="M2099.5,222.464 C2101.83,222.464 2103.73,224.361 2103.73,226.698 C2103.73,229.035 2101.83,230.932 2099.5,230.932 C2097.16,230.932 2095.26,229.035 2095.26,226.698 C2095.26,224.361 2097.16,222.464 2099.5,222.464 Z" id="Fill-235" fill="#FAAB12"></path>
            <path d="M2099.5,233.049 C2101.83,233.049 2103.73,234.946 2103.73,237.283 C2103.73,239.619 2101.83,241.517 2099.5,241.517 C2097.16,241.517 2095.26,239.619 2095.26,237.283 C2095.26,234.946 2097.16,233.049 2099.5,233.049 Z" id="Fill-236" fill="#EEFCF1"></path>
            <path d="M2099.5,243.634 C2101.83,243.634 2103.73,245.531 2103.73,247.867 C2103.73,250.204 2101.83,252.101 2099.5,252.101 C2097.16,252.101 2095.26,250.204 2095.26,247.867 C2095.26,245.531 2097.16,243.634 2099.5,243.634 Z" id="Fill-237" fill="#D5DF87"></path>
            <path d="M2099.5,254.218 C2101.83,254.218 2103.73,256.116 2103.73,258.452 C2103.73,260.789 2101.83,262.686 2099.5,262.686 C2097.16,262.686 2095.26,260.789 2095.26,258.452 C2095.26,256.116 2097.16,254.218 2099.5,254.218 Z" id="Fill-238" fill="#F8AF1A"></path>
            <path d="M2099.5,264.803 C2101.83,264.803 2103.73,266.7 2103.73,269.037 C2103.73,271.374 2101.83,273.271 2099.5,273.271 C2097.16,273.271 2095.26,271.374 2095.26,269.037 C2095.26,266.7 2097.16,264.803 2099.5,264.803 Z" id="Fill-239" fill="#DFF7DC"></path>
            <path d="M2099.5,275.388 C2101.83,275.388 2103.73,277.285 2103.73,279.622 C2103.73,281.959 2101.83,283.856 2099.5,283.856 C2097.16,283.856 2095.26,281.959 2095.26,279.622 C2095.26,277.285 2097.16,275.388 2099.5,275.388 Z" id="Fill-240" fill="#F1FEF4"></path>
            <path d="M2099.5,285.973 C2101.83,285.973 2103.73,287.87 2103.73,290.207 C2103.73,292.543 2101.83,294.441 2099.5,294.441 C2097.16,294.441 2095.26,292.543 2095.26,290.207 C2095.26,287.87 2097.16,285.973 2099.5,285.973 Z" id="Fill-241" fill="#DBD368"></path>
            <path d="M2099.5,296.558 C2101.83,296.558 2103.73,298.455 2103.73,300.791 C2103.73,303.128 2101.83,305.025 2099.5,305.025 C2097.16,305.025 2095.26,303.128 2095.26,300.791 C2095.26,298.455 2097.16,296.558 2099.5,296.558 Z" id="Fill-242" fill="#FBFFFC"></path>
            <path d="M2099.5,307.142 C2101.83,307.142 2103.73,309.04 2103.73,311.376 C2103.73,313.713 2101.83,315.61 2099.5,315.61 C2097.16,315.61 2095.26,313.713 2095.26,311.376 C2095.26,309.04 2097.16,307.142 2099.5,307.142 Z" id="Fill-243" fill="#DBF6D5"></path>
            <path d="M2099.5,317.727 C2101.83,317.727 2103.73,319.624 2103.73,321.961 C2103.73,324.298 2101.83,326.195 2099.5,326.195 C2097.16,326.195 2095.26,324.298 2095.26,321.961 C2095.26,319.624 2097.16,317.727 2099.5,317.727 Z" id="Fill-244" fill="#D2E79F"></path>
            <path d="M2099.5,328.312 C2101.83,328.312 2103.73,330.209 2103.73,332.546 C2103.73,334.883 2101.83,336.78 2099.5,336.78 C2097.16,336.78 2095.26,334.883 2095.26,332.546 C2095.26,330.209 2097.16,328.312 2099.5,328.312 Z" id="Fill-245" fill="#D2E69D"></path>
            <path d="M2099.5,338.897 C2101.83,338.897 2103.73,340.794 2103.73,343.131 C2103.73,345.467 2101.83,347.365 2099.5,347.365 C2097.16,347.365 2095.26,345.467 2095.26,343.131 C2095.26,340.794 2097.16,338.897 2099.5,338.897 Z" id="Fill-246" fill="#DCF6D6"></path>
            <path d="M2099.5,349.482 C2101.83,349.482 2103.73,351.379 2103.73,353.715 C2103.73,356.052 2101.83,357.949 2099.5,357.949 C2097.16,357.949 2095.26,356.052 2095.26,353.715 C2095.26,351.379 2097.16,349.482 2099.5,349.482 Z" id="Fill-247" fill="#D2EBAF"></path>
            <path d="M2099.5,360.066 C2101.83,360.066 2103.73,361.964 2103.73,364.3 C2103.73,366.637 2101.83,368.534 2099.5,368.534 C2097.16,368.534 2095.26,366.637 2095.26,364.3 C2095.26,361.964 2097.16,360.066 2099.5,360.066 Z" id="Fill-248" fill="#D5F1C1"></path>
            <path d="M1153.74,374.718 C1162.6,374.718 1169.79,381.907 1169.79,390.762 C1169.79,399.617 1162.6,406.807 1153.74,406.807 C1144.89,406.807 1137.7,399.617 1137.7,390.762 C1137.7,381.907 1144.89,374.718 1153.74,374.718 Z" id="Fill-249" fill="#FFFFFF"></path>
            <path d="M1915.85,321.167 C1917.02,321.167 1917.97,322.116 1917.97,323.284 C1917.97,324.453 1917.02,325.401 1915.85,325.401 C1914.68,325.401 1913.73,324.453 1913.73,323.284 C1913.73,322.116 1914.68,321.167 1915.85,321.167 Z" id="Fill-250" fill="#CCCCCC"></path>
            <path d="M963.217,123.585 C963.217,121.93 961.873,120.585 960.217,120.585 L952.456,120.585 C950.801,120.585 949.457,121.93 949.457,123.585 L949.457,247.779 C949.457,249.434 950.801,250.778 952.456,250.778 L960.217,250.778 C961.873,250.778 963.217,249.434 963.217,247.779 L963.217,123.585 Z" id="Fill-251"></path>
            <path d="M963.217,123.585 C963.217,121.93 961.873,120.585 960.217,120.585 L952.456,120.585 C950.801,120.585 949.457,121.93 949.457,123.585 L949.457,247.779 C949.457,249.434 950.801,250.778 952.456,250.778 L960.217,250.778 C961.873,250.778 963.217,249.434 963.217,247.779 L963.217,123.585 Z" id="Stroke-252" stroke="#FFFFFF" stroke-width="1.0585"></path>
            <path d="M956.337,123.231 C958.673,123.231 960.571,125.129 960.571,127.465 C960.571,129.802 958.673,131.699 956.337,131.699 C954,131.699 952.103,129.802 952.103,127.465 C952.103,125.129 954,123.231 956.337,123.231 Z" id="Fill-253" fill="#F8AF1A"></path>
            <path d="M956.337,133.816 C958.673,133.816 960.571,135.713 960.571,138.05 C960.571,140.387 958.673,142.284 956.337,142.284 C954,142.284 952.103,140.387 952.103,138.05 C952.103,135.713 954,133.816 956.337,133.816 Z" id="Fill-254" fill="#E4C74C"></path>
            <path d="M956.337,144.401 C958.673,144.401 960.571,146.298 960.571,148.635 C960.571,150.972 958.673,152.869 956.337,152.869 C954,152.869 952.103,150.972 952.103,148.635 C952.103,146.298 954,144.401 956.337,144.401 Z" id="Fill-255" fill="#F1FEF4"></path>
            <path d="M956.337,154.986 C958.673,154.986 960.571,156.883 960.571,159.22 C960.571,161.557 958.673,163.454 956.337,163.454 C954,163.454 952.103,161.557 952.103,159.22 C952.103,156.883 954,154.986 956.337,154.986 Z" id="Fill-256" fill="#E1CC57"></path>
            <path d="M956.337,165.571 C958.673,165.571 960.571,167.468 960.571,169.805 C960.571,172.141 958.673,174.038 956.337,174.038 C954,174.038 952.103,172.141 952.103,169.805 C952.103,167.468 954,165.571 956.337,165.571 Z" id="Fill-257" fill="#D2E69B"></path>
            <path d="M956.337,176.155 C958.673,176.155 960.571,178.053 960.571,180.389 C960.571,182.726 958.673,184.623 956.337,184.623 C954,184.623 952.103,182.726 952.103,180.389 C952.103,178.053 954,176.155 956.337,176.155 Z" id="Fill-258" fill="#E0CD57"></path>
            <path d="M956.337,186.74 C958.673,186.74 960.571,188.637 960.571,190.974 C960.571,193.311 958.673,195.208 956.337,195.208 C954,195.208 952.103,193.311 952.103,190.974 C952.103,188.637 954,186.74 956.337,186.74 Z" id="Fill-259" fill="#E7FAE9"></path>
            <path d="M956.337,197.325 C958.673,197.325 960.571,199.222 960.571,201.559 C960.571,203.896 958.673,205.793 956.337,205.793 C954,205.793 952.103,203.896 952.103,201.559 C952.103,199.222 954,197.325 956.337,197.325 Z" id="Fill-260" fill="#FFA603"></path>
            <path d="M956.337,207.91 C958.673,207.91 960.571,209.807 960.571,212.144 C960.571,214.481 958.673,216.378 956.337,216.378 C954,216.378 952.103,214.481 952.103,212.144 C952.103,209.807 954,207.91 956.337,207.91 Z" id="Fill-261" fill="#FFA706"></path>
            <path d="M956.337,218.495 C958.673,218.495 960.571,220.392 960.571,222.729 C960.571,225.065 958.673,226.962 956.337,226.962 C954,226.962 952.103,225.065 952.103,222.729 C952.103,220.392 954,218.495 956.337,218.495 Z" id="Fill-262" fill="#E8FAEA"></path>
            <path d="M956.337,229.079 C958.673,229.079 960.571,230.977 960.571,233.313 C960.571,235.65 958.673,237.547 956.337,237.547 C954,237.547 952.103,235.65 952.103,233.313 C952.103,230.977 954,229.079 956.337,229.079 Z" id="Fill-263" fill="#F3B527"></path>
            <path d="M956.337,239.664 C958.673,239.664 960.571,241.561 960.571,243.898 C960.571,246.235 958.673,248.132 956.337,248.132 C954,248.132 952.103,246.235 952.103,243.898 C952.103,241.561 954,239.664 956.337,239.664 Z" id="Fill-264" fill="#FBFFFC"></path>
            <path d="M1153.74,828.582 C1164.04,828.582 1172.39,836.939 1172.39,847.232 C1172.39,857.525 1164.04,865.881 1153.74,865.881 C1143.45,865.881 1135.09,857.525 1135.09,847.232 C1135.09,836.939 1143.45,828.582 1153.74,828.582 Z" id="Fill-265" fill="#FFFFFF"></path>
            <path d="M1725.32,265.068 C1728.24,265.068 1730.61,267.439 1730.61,270.36 C1730.61,273.281 1728.24,275.653 1725.32,275.653 C1722.4,275.653 1720.03,273.281 1720.03,270.36 C1720.03,267.439 1722.4,265.068 1725.32,265.068 Z" id="Fill-266" fill="#FFFFFF"></path>
            <path d="M1344.27,368.044 C1353.89,368.044 1361.7,375.852 1361.7,385.47 C1361.7,395.087 1353.89,402.896 1344.27,402.896 C1334.65,402.896 1326.84,395.087 1326.84,385.47 C1326.84,375.852 1334.65,368.044 1344.27,368.044 Z" id="Fill-267" fill="#FFFFFF"></path>
            <path d="M1534.8,785.528 C1554.11,785.528 1569.8,801.211 1569.8,820.528 C1569.8,839.845 1554.11,855.528 1534.8,855.528 C1515.48,855.528 1499.8,839.845 1499.8,820.528 C1499.8,801.211 1515.48,785.528 1534.8,785.528 Z" id="Fill-268" fill="#FFFFFF"></path>
            <path d="M1725.32,359.537 C1726.49,359.537 1727.44,360.486 1727.44,361.654 C1727.44,362.822 1726.49,363.771 1725.32,363.771 C1724.15,363.771 1723.21,362.822 1723.21,361.654 C1723.21,360.486 1724.15,359.537 1725.32,359.537 Z" id="Fill-269" fill="#CCCCCC"></path>
            <path d="M1725.32,838.321 C1743.38,838.321 1758.05,852.986 1758.05,871.048 C1758.05,889.11 1743.38,903.774 1725.32,903.774 C1707.26,903.774 1692.6,889.11 1692.6,871.048 C1692.6,852.986 1707.26,838.321 1725.32,838.321 Z" id="Fill-270" fill="#FFFFFF"></path>
            <path d="M963.217,583.141 C964.385,583.141 965.334,584.09 965.334,585.258 C965.334,586.426 964.385,587.375 963.217,587.375 C962.048,587.375 961.1,586.426 961.1,585.258 C961.1,584.09 962.048,583.141 963.217,583.141 Z" id="Fill-271" fill="#CCCCCC"></path>
            <path d="M1344.27,268.82 C1350.23,268.82 1355.07,273.66 1355.07,279.622 C1355.07,285.584 1350.23,290.424 1344.27,290.424 C1338.31,290.424 1333.47,285.584 1333.47,279.622 C1333.47,273.66 1338.31,268.82 1344.27,268.82 Z" id="Fill-272" fill="#FFFFFF"></path>
            <path d="M772.69,748.088 C772.69,746.433 771.346,745.088 769.691,745.088 L761.93,745.088 C760.274,745.088 758.93,746.433 758.93,748.088 L758.93,1062.8082 C758.93,1064.4636 760.274,1065.8079 761.93,1065.8079 L769.691,1065.8079 C771.346,1065.8079 772.69,1064.4636 772.69,1062.8082 L772.69,748.088 Z" id="Fill-273"></path>
            <path d="M772.69,748.088 C772.69,746.433 771.346,745.088 769.691,745.088 L761.93,745.088 C760.274,745.088 758.93,746.433 758.93,748.088 L758.93,1062.8082 C758.93,1064.4636 760.274,1065.8079 761.93,1065.8079 L769.691,1065.8079 C771.346,1065.8079 772.69,1064.4636 772.69,1062.8082 L772.69,748.088 Z" id="Stroke-274" stroke="#FFFFFF" stroke-width="1.0585"></path>
            <path d="M765.81,747.735 C768.147,747.735 770.044,749.632 770.044,751.969 C770.044,754.305 768.147,756.202 765.81,756.202 C763.474,756.202 761.576,754.305 761.576,751.969 C761.576,749.632 763.474,747.735 765.81,747.735 Z" id="Fill-275" fill="#D4EFBC"></path>
            <path d="M765.81,758.319 C768.147,758.319 770.044,760.217 770.044,762.553 C770.044,764.89 768.147,766.787 765.81,766.787 C763.474,766.787 761.576,764.89 761.576,762.553 C761.576,760.217 763.474,758.319 765.81,758.319 Z" id="Fill-276" fill="#F2FEF5"></path>
            <path d="M765.81,768.904 C768.147,768.904 770.044,770.801 770.044,773.138 C770.044,775.475 768.147,777.372 765.81,777.372 C763.474,777.372 761.576,775.475 761.576,773.138 C761.576,770.801 763.474,768.904 765.81,768.904 Z" id="Fill-277" fill="#D2EAAA"></path>
            <path d="M765.81,779.489 C768.147,779.489 770.044,781.386 770.044,783.723 C770.044,786.06 768.147,787.957 765.81,787.957 C763.474,787.957 761.576,786.06 761.576,783.723 C761.576,781.386 763.474,779.489 765.81,779.489 Z" id="Fill-278" fill="#DFF8DD"></path>
            <path d="M765.81,790.074 C768.147,790.074 770.044,791.971 770.044,794.308 C770.044,796.645 768.147,798.542 765.81,798.542 C763.474,798.542 761.576,796.645 761.576,794.308 C761.576,791.971 763.474,790.074 765.81,790.074 Z" id="Fill-279" fill="#D6DC80"></path>
            <path d="M765.81,800.659 C768.147,800.659 770.044,802.556 770.044,804.893 C770.044,807.229 768.147,809.126 765.81,809.126 C763.474,809.126 761.576,807.229 761.576,804.893 C761.576,802.556 763.474,800.659 765.81,800.659 Z" id="Fill-280" fill="#DCD264"></path>
            <path d="M765.81,811.243 C768.147,811.243 770.044,813.141 770.044,815.477 C770.044,817.814 768.147,819.711 765.81,819.711 C763.474,819.711 761.576,817.814 761.576,815.477 C761.576,813.141 763.474,811.243 765.81,811.243 Z" id="Fill-281" fill="#DBF5D4"></path>
            <path d="M765.81,821.828 C768.147,821.828 770.044,823.725 770.044,826.062 C770.044,828.399 768.147,830.296 765.81,830.296 C763.474,830.296 761.576,828.399 761.576,826.062 C761.576,823.725 763.474,821.828 765.81,821.828 Z" id="Fill-282" fill="#D7F2C7"></path>
            <path d="M765.81,832.413 C768.147,832.413 770.044,834.31 770.044,836.647 C770.044,838.984 768.147,840.881 765.81,840.881 C763.474,840.881 761.576,838.984 761.576,836.647 C761.576,834.31 763.474,832.413 765.81,832.413 Z" id="Fill-283" fill="#D2E79F"></path>
            <path d="M765.81,842.998 C768.147,842.998 770.044,844.895 770.044,847.232 C770.044,849.569 768.147,851.466 765.81,851.466 C763.474,851.466 761.576,849.569 761.576,847.232 C761.576,844.895 763.474,842.998 765.81,842.998 Z" id="Fill-284" fill="#D8D975"></path>
            <path d="M765.81,853.583 C768.147,853.583 770.044,855.48 770.044,857.817 C770.044,860.153 768.147,862.05 765.81,862.05 C763.474,862.05 761.576,860.153 761.576,857.817 C761.576,855.48 763.474,853.583 765.81,853.583 Z" id="Fill-285" fill="#F5B220"></path>
            <path d="M765.81,864.167 C768.147,864.167 770.044,866.065 770.044,868.401 C770.044,870.738 768.147,872.635 765.81,872.635 C763.474,872.635 761.576,870.738 761.576,868.401 C761.576,866.065 763.474,864.167 765.81,864.167 Z" id="Fill-286" fill="#EDBC35"></path>
            <path d="M765.81,874.752 C768.147,874.752 770.044,876.649 770.044,878.986 C770.044,881.323 768.147,883.22 765.81,883.22 C763.474,883.22 761.576,881.323 761.576,878.986 C761.576,876.649 763.474,874.752 765.81,874.752 Z" id="Fill-287" fill="#E5C649"></path>
            <path d="M765.81,885.337 C768.147,885.337 770.044,887.234 770.044,889.571 C770.044,891.908 768.147,893.805 765.81,893.805 C763.474,893.805 761.576,891.908 761.576,889.571 C761.576,887.234 763.474,885.337 765.81,885.337 Z" id="Fill-288" fill="#D2EAA9"></path>
            <path d="M765.81,895.922 C768.147,895.922 770.044,897.819 770.044,900.156 C770.044,902.493 768.147,904.39 765.81,904.39 C763.474,904.39 761.576,902.493 761.576,900.156 C761.576,897.819 763.474,895.922 765.81,895.922 Z" id="Fill-289" fill="#F3FEF6"></path>
            <path d="M765.81,906.507 C768.147,906.507 770.044,908.404 770.044,910.741 C770.044,913.077 768.147,914.974 765.81,914.974 C763.474,914.974 761.576,913.077 761.576,910.741 C761.576,908.404 763.474,906.507 765.81,906.507 Z" id="Fill-290" fill="#D6DC7F"></path>
            <path d="M765.81,917.091 C768.147,917.091 770.044,918.989 770.044,921.325 C770.044,923.662 768.147,925.559 765.81,925.559 C763.474,925.559 761.576,923.662 761.576,921.325 C761.576,918.989 763.474,917.091 765.81,917.091 Z" id="Fill-291" fill="#D8F3CC"></path>
            <path d="M765.81,927.676 C768.147,927.676 770.044,929.573 770.044,931.91 C770.044,934.247 768.147,936.144 765.81,936.144 C763.474,936.144 761.576,934.247 761.576,931.91 C761.576,929.573 763.474,927.676 765.81,927.676 Z" id="Fill-292" fill="#D2E9A6"></path>
            <path d="M765.81,938.261 C768.147,938.261 770.044,940.158 770.044,942.495 C770.044,944.832 768.147,946.729 765.81,946.729 C763.474,946.729 761.576,944.832 761.576,942.495 C761.576,940.158 763.474,938.261 765.81,938.261 Z" id="Fill-293" fill="#DBD469"></path>
            <path d="M765.81,948.846 C768.147,948.846 770.044,950.743 770.044,953.08 C770.044,955.417 768.147,957.314 765.81,957.314 C763.474,957.314 761.576,955.417 761.576,953.08 C761.576,950.743 763.474,948.846 765.81,948.846 Z" id="Fill-294" fill="#F9AD16"></path>
            <path d="M765.81,959.431 C768.147,959.431 770.044,961.328 770.044,963.665 C770.044,966.001 768.147,967.898 765.81,967.898 C763.474,967.898 761.576,966.001 761.576,963.665 C761.576,961.328 763.474,959.431 765.81,959.431 Z" id="Fill-295" fill="#FBFFFC"></path>
            <path d="M765.81,970.0154 C768.147,970.0154 770.044,971.9126 770.044,974.2494 C770.044,976.5861 768.147,978.4833 765.81,978.4833 C763.474,978.4833 761.576,976.5861 761.576,974.2494 C761.576,971.9126 763.474,970.0154 765.81,970.0154 Z" id="Fill-296" fill="#D7DA79"></path>
            <path d="M765.81,980.6002 C768.147,980.6002 770.044,982.4974 770.044,984.8342 C770.044,987.1709 768.147,989.0681 765.81,989.0681 C763.474,989.0681 761.576,987.1709 761.576,984.8342 C761.576,982.4974 763.474,980.6002 765.81,980.6002 Z" id="Fill-297" fill="#DAD66E"></path>
            <path d="M765.81,991.185 C768.147,991.185 770.044,993.0822 770.044,995.419 C770.044,997.7557 768.147,999.6529 765.81,999.6529 C763.474,999.6529 761.576,997.7557 761.576,995.419 C761.576,993.0822 763.474,991.185 765.81,991.185 Z" id="Fill-298" fill="#EDBC35"></path>
            <path d="M765.81,1001.7698 C768.147,1001.7698 770.044,1003.667 770.044,1006.0038 C770.044,1008.3405 768.147,1010.2377 765.81,1010.2377 C763.474,1010.2377 761.576,1008.3405 761.576,1006.0038 C761.576,1003.667 763.474,1001.7698 765.81,1001.7698 Z" id="Fill-299" fill="#E3F9E3"></path>
            <path d="M765.81,1012.3546 C768.147,1012.3546 770.044,1014.2518 770.044,1016.5886 C770.044,1018.9253 768.147,1020.8225 765.81,1020.8225 C763.474,1020.8225 761.576,1018.9253 761.576,1016.5886 C761.576,1014.2518 763.474,1012.3546 765.81,1012.3546 Z" id="Fill-300" fill="#E9C240"></path>
            <path d="M765.81,1022.9394 C768.147,1022.9394 770.044,1024.8366 770.044,1027.1734 C770.044,1029.5101 768.147,1031.4073 765.81,1031.4073 C763.474,1031.4073 761.576,1029.5101 761.576,1027.1734 C761.576,1024.8366 763.474,1022.9394 765.81,1022.9394 Z" id="Fill-301" fill="#DBD468"></path>
            <path d="M765.81,1033.5242 C768.147,1033.5242 770.044,1035.4214 770.044,1037.7582 C770.044,1040.0949 768.147,1041.9921 765.81,1041.9921 C763.474,1041.9921 761.576,1040.0949 761.576,1037.7582 C761.576,1035.4214 763.474,1033.5242 765.81,1033.5242 Z" id="Fill-302" fill="#EAC03D"></path>
            <path d="M765.81,1044.109 C768.147,1044.109 770.044,1046.0062 770.044,1048.343 C770.044,1050.6797 768.147,1052.5769 765.81,1052.5769 C763.474,1052.5769 761.576,1050.6797 761.576,1048.343 C761.576,1046.0062 763.474,1044.109 765.81,1044.109 Z" id="Fill-303" fill="#EBBF3B"></path>
            <path d="M765.81,1054.6938 C768.147,1054.6938 770.044,1056.591 770.044,1058.9278 C770.044,1061.2645 768.147,1063.1617 765.81,1063.1617 C763.474,1063.1617 761.576,1061.2645 761.576,1058.9278 C761.576,1056.591 763.474,1054.6938 765.81,1054.6938 Z" id="Fill-304" fill="#EFFCF2"></path>
            <path d="M1725.32,710.159 C1726.49,710.159 1727.44,711.107 1727.44,712.276 C1727.44,713.444 1726.49,714.393 1725.32,714.393 C1724.15,714.393 1723.21,713.444 1723.21,712.276 C1723.21,711.107 1724.15,710.159 1725.32,710.159 Z" id="Fill-305" fill="#CCCCCC"></path>
            <path d="M1725.32,120.056 C1726.49,120.056 1727.44,121.005 1727.44,122.173 C1727.44,123.341 1726.49,124.29 1725.32,124.29 C1724.15,124.29 1723.21,123.341 1723.21,122.173 C1723.21,121.005 1724.15,120.056 1725.32,120.056 Z" id="Fill-306" fill="#CCCCCC"></path>
            <path d="M1534.8,322.49 C1535.96,322.49 1536.91,323.439 1536.91,324.607 C1536.91,325.776 1535.96,326.724 1534.8,326.724 C1533.63,326.724 1532.68,325.776 1532.68,324.607 C1532.68,323.439 1533.63,322.49 1534.8,322.49 Z" id="Fill-307" fill="#CCCCCC"></path>
            <path d="M1915.85,710.159 C1917.02,710.159 1917.97,711.107 1917.97,712.276 C1917.97,713.444 1917.02,714.393 1915.85,714.393 C1914.68,714.393 1913.73,713.444 1913.73,712.276 C1913.73,711.107 1914.68,710.159 1915.85,710.159 Z" id="Fill-308" fill="#CCCCCC"></path>
            <path d="M963.217,969.4862 C964.385,969.4862 965.334,970.4348 965.334,971.6032 C965.334,972.7715 964.385,973.7201 963.217,973.7201 C962.048,973.7201 961.1,972.7715 961.1,971.6032 C961.1,970.4348 962.048,969.4862 963.217,969.4862 Z" id="Fill-309" fill="#CCCCCC"></path>
            <path d="M391.638,274.859 C392.806,274.859 393.755,275.807 393.755,276.976 C393.755,278.144 392.806,279.093 391.638,279.093 C390.469,279.093 389.521,278.144 389.521,276.976 C389.521,275.807 390.469,274.859 391.638,274.859 Z" id="Fill-310" fill="#CCCCCC"></path>
            <path d="M1344.27,710.159 C1345.44,710.159 1346.39,711.107 1346.39,712.276 C1346.39,713.444 1345.44,714.393 1344.27,714.393 C1343.1,714.393 1342.15,713.444 1342.15,712.276 C1342.15,711.107 1343.1,710.159 1344.27,710.159 Z" id="Fill-311" fill="#CCCCCC"></path>
            <path d="M2311.75,617.89 C2320.03,617.89 2326.75,624.611 2326.75,632.89 C2326.75,641.168 2320.03,647.889 2311.75,647.889 C2303.47,647.889 2296.75,641.168 2296.75,632.89 C2296.75,624.611 2303.47,617.89 2311.75,617.89 Z" id="Fill-312" fill="#D0011B"></path>
        </g>
    </g>
</svg>